<?xml version="1.0" encoding="UTF-8" standalone="no"?>
<!-- Generator: Adobe Illustrator 25.3.0, SVG Export Plug-In . SVG Version: 6.00 Build 0)  -->

<svg
   xmlns:dc="http://purl.org/dc/elements/1.1/"
   xmlns:cc="http://creativecommons.org/ns#"
   xmlns:rdf="http://www.w3.org/1999/02/22-rdf-syntax-ns#"
   xmlns:svg="http://www.w3.org/2000/svg"
   xmlns="http://www.w3.org/2000/svg"
   xmlns:sodipodi="http://sodipodi.sourceforge.net/DTD/sodipodi-0.dtd"
   xmlns:inkscape="http://www.inkscape.org/namespaces/inkscape"
   version="1.1"
   id="svg2"
   inkscape:version="0.92.5 (2060ec1f9f, 2020-04-08)"
   sodipodi:docname="logo-acumar.svg"
   x="0px"
   y="0px"
   viewBox="0 0 310.64089 60.790789"
   xml:space="preserve"
   width="310.6409"
   height="60.790787"><metadata
   id="metadata22"><rdf:RDF><cc:Work
       rdf:about=""><dc:format>image/svg+xml</dc:format><dc:type
         rdf:resource="http://purl.org/dc/dcmitype/StillImage" /><dc:title></dc:title></cc:Work></rdf:RDF></metadata><defs
   id="defs20">
	
	
	
	
	
	
	
	
	
	
	
	
</defs><sodipodi:namedview
   pagecolor="#ffffff"
   bordercolor="#666666"
   borderopacity="1"
   objecttolerance="10"
   gridtolerance="10"
   guidetolerance="10"
   inkscape:pageopacity="0"
   inkscape:pageshadow="2"
   inkscape:window-width="1366"
   inkscape:window-height="704"
   id="namedview18"
   showgrid="false"
   fit-margin-top="0"
   fit-margin-left="0"
   fit-margin-right="0"
   fit-margin-bottom="0"
   inkscape:zoom="1.8297194"
   inkscape:cx="151.974"
   inkscape:cy="59.679527"
   inkscape:window-x="0"
   inkscape:window-y="27"
   inkscape:window-maximized="1"
   inkscape:current-layer="svg2" />
<style
   type="text/css"
   id="style2">
	.st0{fill:#37BBED;}
</style>
<path
   style="fill:#37bbed;stroke-width:2.1788342"
   d="m 30.395391,53.49589 c -12.766064,0 -23.1873409,-10.334433 -23.1873409,-23.187343 0,-12.766064 10.3344329,-23.1873408 23.1873409,-23.1873408 12.766064,0.086844 23.100499,10.4212768 23.100499,23.1873408 0,12.85291 -10.334435,23.187343 -23.100499,23.187343 M 30.395391,0 C 13.634504,0 0,13.634505 0,30.395393 c 0,16.760886 13.634504,30.395392 30.395391,30.395392 16.760888,0 30.395392,-13.634506 30.395392,-30.395392 C 60.790783,13.547661 47.156279,0 30.395391,0"
   class="st0"
   inkscape:connector-curvature="0"
   id="path78" /><path
   style="fill:#37bbed;stroke-width:2.1788342"
   d="m 25.184753,19.887271 c 0.868439,1.99741 -0.434219,3.300071 -2.084255,4.429042 -1.042129,0.694752 -2.257944,1.128973 -3.647448,2.431632 -2.779007,2.692163 -4.342198,6.947517 -2.692163,11.637093 0,0 -0.260532,-0.173684 -0.694752,-0.781596 -4.081667,-5.90539 -3.821135,-13.721348 2.865852,-19.192519 1.563192,-0.955284 2.344788,-0.86844 3.213228,-0.694752 0.781594,0 2.344786,0.607908 3.039538,2.1711"
   class="st0"
   inkscape:connector-curvature="0"
   id="path82" /><path
   style="fill:#37bbed;stroke-width:2.1788342"
   d="m 40.295605,25.097909 c -1.997411,0.86844 -3.300071,-0.347375 -4.429042,-2.084255 -0.694753,-1.042127 -1.128973,-2.257944 -2.431632,-3.647446 -2.692163,-2.779008 -6.947518,-4.3422 -11.55025,-2.60532 0,0 0.173684,-0.260532 0.781596,-0.694752 5.905391,-4.168511 13.634504,-3.994823 19.105676,2.692163 0.955283,1.563192 0.86844,2.344788 0.781596,3.213228 -0.173684,0.86844 -0.781596,2.518476 -2.257944,3.126382"
   class="st0"
   inkscape:connector-curvature="0"
   id="path86" /><path
   style="fill:#37bbed;stroke-width:2.1788342"
   d="m 20.060958,34.911279 c 1.997411,-0.86844 3.300071,0.347375 4.429043,1.997411 0.694752,1.042129 1.128972,2.257944 2.431631,3.647448 2.692163,2.779007 7.034364,4.255355 11.637093,2.605319 0,0 -0.08685,0.260532 -0.781595,0.694753 -5.818547,4.168509 -13.634505,4.081665 -19.105675,-2.605322 -0.955284,-1.563189 -0.86844,-2.344785 -0.781596,-3.213225 0.173688,-0.86844 0.694752,-2.518476 2.171099,-3.126384"
   class="st0"
   inkscape:connector-curvature="0"
   id="path90" /><path
   style="fill:#37bbed;stroke-width:2.1788342"
   d="m 35.432342,39.774542 c -0.86844,-1.997412 0.260533,-3.300071 1.910569,-4.429044 1.042127,-0.69475 2.257942,-1.215815 3.560602,-2.518475 2.692163,-2.692163 4.168511,-7.121206 2.431632,-11.723936 0,0 0.260531,0.173684 0.694752,0.781594 4.255355,5.818547 4.255355,13.634506 -2.257944,19.279364 -1.563192,1.042129 -2.344788,0.868439 -3.213228,0.781596 -0.781595,-0.173684 -2.431631,-0.694753 -3.126383,-2.171099"
   class="st0"
   inkscape:connector-curvature="0"
   id="path94" /><path
   style="fill:#37bbed;stroke-width:2.1788342"
   d="m 26.834788,30.13486 c 0,1.823723 1.476348,3.386915 3.386915,3.386915 1.823724,0 3.386915,-1.476346 3.386915,-3.386915 0,-1.823723 -1.476348,-3.386915 -3.386915,-3.386915 -1.910567,0 -3.386915,1.476348 -3.386915,3.386915"
   class="st0"
   inkscape:connector-curvature="0"
   id="path98" /><path
   style="fill:#37bbed;stroke-width:2.1788342"
   d="m 90.230891,43.68252 c 1.389505,-0.521063 2.60532,-1.389502 3.647449,-2.605319 v -8.684397 l -6.686987,0.607908 c -2.518475,0.260531 -4.429044,0.86844 -5.644859,1.823723 -1.215815,0.955284 -1.736879,2.344788 -1.736879,4.081668 0,1.823723 0.521064,3.126381 1.563192,4.081667 1.042127,0.955283 2.605319,1.389502 4.60273,1.389502 1.476348,0.08685 2.865852,-0.173684 4.255354,-0.694752 m 5.558016,-32.740179 c 2.518475,1.042128 4.429043,2.692164 5.731703,5.123795 1.21582,2.344787 1.91057,5.558014 1.91057,9.639681 v 25.09791 h -8.076494 l -0.69475,-4.255355 h -0.521065 c -1.215817,1.650036 -2.779007,2.865851 -4.689576,3.647447 -1.910567,0.86844 -4.081665,1.215817 -6.426453,1.215817 -2.692163,0 -4.950107,-0.434221 -6.860674,-1.389505 -1.910569,-0.955283 -3.386915,-2.257944 -4.429044,-3.994823 -1.042127,-1.73688 -1.56319,-3.73429 -1.56319,-6.079078 0,-3.821136 1.302659,-6.686987 3.907978,-8.771241 2.605319,-2.084257 6.686986,-3.300071 12.245002,-3.734292 l 7.64227,-0.694752 v -1.563192 c 0,-2.084255 -0.347378,-3.647447 -0.955284,-4.863262 -0.694752,-1.215816 -1.650036,-1.997412 -3.126384,-2.518475 -1.389504,-0.521064 -3.300071,-0.781596 -5.644859,-0.781596 -1.650035,0 -3.473759,0.173687 -5.384326,0.434219 -1.910567,0.260532 -3.821136,0.694752 -5.558015,1.30266 v -7.468582 c 1.823723,-0.607908 3.90798,-1.042128 6.165924,-1.3026596 2.257942,-0.2605319 4.429042,-0.4342198 6.513297,-0.4342198 3.907979,-0.1736876 7.294894,0.3473759 9.81337,1.3895034"
   class="st0"
   inkscape:connector-curvature="0"
   id="path102" /><path
   style="fill:#37bbed;stroke-width:2.1788342"
   d="m 113.67877,46.200995 c -3.38692,-3.473758 -5.1238,-8.771241 -5.1238,-15.805602 0,-7.121207 1.82373,-12.418689 5.47117,-15.892449 3.64745,-3.473759 8.94493,-5.1237944 15.89245,-5.1237944 3.12638,0 6.07908,0.3473759 8.85809,0.9552834 v 7.815958 c -2.69217,-0.607908 -5.21064,-0.868439 -7.55543,-0.868439 -2.9527,0 -5.29748,0.434219 -7.12121,1.302659 -1.82372,0.868441 -3.21322,2.257943 -4.08166,4.168512 -0.86844,1.910567 -1.30266,4.429042 -1.30266,7.555424 0,4.689576 0.95528,8.076491 2.779,10.160747 1.91057,2.084255 4.77642,3.039538 8.59756,3.039538 1.30266,0 2.60532,-0.08685 3.99482,-0.347375 1.38951,-0.260533 2.9527,-0.607908 4.68958,-1.128973 v 7.81596 c -3.21323,1.042127 -6.60015,1.563192 -10.16075,1.563192 -6.5133,0 -11.55025,-1.736882 -14.93716,-5.210641"
   class="st0"
   inkscape:connector-curvature="0"
   id="path106" /><path
   style="fill:#37bbed;stroke-width:2.1788342"
   d="m 146.41895,47.677344 c -2.43164,-2.518476 -3.64745,-6.33961 -3.64745,-11.723938 V 9.9870574 h 9.72652 V 35.432344 c 0,2.692163 0.60791,4.60273 1.73688,5.818544 1.12898,1.128973 2.77901,1.736882 4.86327,1.736882 1.56319,0 3.12638,-0.347377 4.68957,-1.042129 1.56319,-0.694753 2.86585,-1.73688 3.90798,-3.126382 V 9.9870574 h 9.81337 V 50.716883 h -8.07649 l -0.69475,-4.255354 h -0.43422 c -1.56319,1.650035 -3.38692,2.86585 -5.38433,3.647446 -1.99741,0.86844 -4.16851,1.215815 -6.42645,1.215815 -4.3422,0.08685 -7.64227,-1.128971 -10.0739,-3.647446"
   class="st0"
   inkscape:connector-curvature="0"
   id="path110" /><path
   style="fill:#37bbed;stroke-width:2.1788342"
   d="m 238.03935,13.026597 c 2.34477,2.431631 3.47375,6.426455 3.47375,11.723937 V 50.63004 h -9.72652 V 25.358442 c 0,-2.692165 -0.52107,-4.602732 -1.65005,-5.731703 -1.04212,-1.128972 -2.60531,-1.736879 -4.51587,-1.736879 -1.38951,0 -2.77901,0.260531 -4.08167,0.868439 -1.30266,0.607909 -2.51848,1.476349 -3.47377,2.779007 0.0868,0.781596 0.1737,1.823724 0.1737,3.03954 v 26.140037 h -9.55283 V 25.358442 c 0,-2.692165 -0.52107,-4.602732 -1.5632,-5.818546 -1.04214,-1.128973 -2.51848,-1.73688 -4.42906,-1.73688 -1.47634,0 -2.95268,0.347375 -4.34218,1.042127 -1.38951,0.694753 -2.60532,1.73688 -3.56061,3.126384 V 50.63004 h -9.81337 V 9.9870574 h 8.0765 l 0.69475,4.3421986 h 0.52105 c 1.47636,-1.650035 3.21324,-2.865851 5.1238,-3.734291 1.91058,-0.8684395 4.08167,-1.2158154 6.42645,-1.2158154 2.25794,0 4.34221,0.4342199 6.07908,1.3026594 1.73688,0.86844 3.21324,2.257944 4.25536,4.081667 1.73687,-1.823723 3.64745,-3.213227 5.7317,-4.081667 2.08426,-0.8684395 4.3422,-1.3026594 6.5133,-1.3026594 4.08167,0 7.29489,1.2158154 9.63969,3.6474474"
   class="st0"
   inkscape:connector-curvature="0"
   id="path114" /><path
   style="fill:#37bbed;stroke-width:2.1788342"
   d="m 266.61102,43.68252 c 1.38949,-0.521063 2.60531,-1.389502 3.64743,-2.605319 v -8.684397 l -6.68698,0.607908 c -2.51847,0.260531 -4.42904,0.86844 -5.64485,1.823723 -1.21582,0.955284 -1.73689,2.344788 -1.73689,4.081668 0,1.823723 0.52107,3.126381 1.56319,4.081667 1.04214,0.955283 2.60533,1.389502 4.60274,1.389502 1.56319,0.08685 2.95268,-0.173684 4.25536,-0.694752 m 5.64484,-32.740179 c 2.51848,1.042128 4.42904,2.692164 5.73172,5.123795 1.2158,2.344787 1.91056,5.558014 1.91056,9.639681 v 25.09791 h -8.0765 l -0.69475,-4.255355 h -0.52105 c -1.21583,1.650036 -2.77902,2.865851 -4.68958,3.647447 -1.91057,0.86844 -4.08167,1.215817 -6.42645,1.215817 -2.69216,0 -4.95011,-0.434221 -6.86069,-1.389505 -1.91056,-0.955283 -3.3869,-2.257944 -4.42904,-3.994823 -1.04212,-1.73688 -1.56319,-3.73429 -1.56319,-6.079078 0,-3.821136 1.30266,-6.686987 3.90799,-8.771241 2.60531,-2.084257 6.68699,-3.300071 12.245,-3.734292 l 7.64228,-0.694752 v -1.563192 c 0,-2.084255 -0.34739,-3.647447 -0.95529,-4.863262 -0.69476,-1.215816 -1.65005,-1.997412 -3.12639,-2.518475 -1.38951,-0.521064 -3.30007,-0.781596 -5.64486,-0.781596 -1.65003,0 -3.47375,0.173687 -5.38433,0.434219 -1.91056,0.260532 -3.82114,0.694752 -5.55802,1.30266 v -7.468582 c 1.82373,-0.607908 3.90799,-1.042128 6.16594,-1.3026596 2.25793,-0.2605319 4.42904,-0.4342198 6.51328,-0.4342198 3.90799,-0.1736876 7.20806,0.3473759 9.81337,1.3895034"
   class="st0"
   inkscape:connector-curvature="0"
   id="path118" /><path
   style="fill:#37bbed;stroke-width:2.1788342"
   d="m 286.93249,9.9870574 h 8.0765 l 0.7816,5.2974826 h 0.52105 c 1.21583,-1.910567 2.77902,-3.386915 4.68958,-4.342199 1.91058,-0.9552836 4.08167,-1.4763474 6.42645,-1.4763474 1.04214,0 2.17111,0.086844 3.21324,0.2605319 v 8.9449295 c -0.95529,-0.173687 -2.25795,-0.260532 -3.82114,-0.260532 -1.91056,0 -3.82114,0.43422 -5.7317,1.215816 -1.91056,0.781596 -3.38692,1.910567 -4.42904,3.386915 v 27.703229 h -9.81337 V 9.9870574 Z"
   class="st0"
   inkscape:connector-curvature="0"
   id="path122" />
</svg>