<?xml version="1.0" encoding="UTF-8" standalone="no"?>
<svg
   xmlns:dc="http://purl.org/dc/elements/1.1/"
   xmlns:cc="http://creativecommons.org/ns#"
   xmlns:rdf="http://www.w3.org/1999/02/22-rdf-syntax-ns#"
   xmlns:svg="http://www.w3.org/2000/svg"
   xmlns="http://www.w3.org/2000/svg"
   xmlns:sodipodi="http://sodipodi.sourceforge.net/DTD/sodipodi-0.dtd"
   xmlns:inkscape="http://www.inkscape.org/namespaces/inkscape"
   id="abcca033-2c1f-44c9-85fc-3aee3d04dd44"
   data-name="Layer 1"
   viewBox="0 0 167.41171 167.40915"
   version="1.1"
   sodipodi:docname="logo-uba.svg"
   width="167.41171"
   height="167.40915"
   inkscape:version="0.92.5 (2060ec1f9f, 2020-04-08)">
  <metadata
     id="metadata143">
    <rdf:RDF>
      <cc:Work
         rdf:about="">
        <dc:format>image/svg+xml</dc:format>
        <dc:type
           rdf:resource="http://purl.org/dc/dcmitype/StillImage" />
        <dc:title></dc:title>
      </cc:Work>
    </rdf:RDF>
  </metadata>
  <defs
     id="defs141" />
  <sodipodi:namedview
     pagecolor="#ffffff"
     bordercolor="#666666"
     borderopacity="1"
     objecttolerance="10"
     gridtolerance="10"
     guidetolerance="10"
     inkscape:pageopacity="0"
     inkscape:pageshadow="2"
     inkscape:window-width="1366"
     inkscape:window-height="704"
     id="namedview139"
     showgrid="false"
     fit-margin-top="0"
     fit-margin-left="0"
     fit-margin-right="0"
     fit-margin-bottom="0"
     inkscape:zoom="2.0966596"
     inkscape:cx="56.288073"
     inkscape:cy="111.10915"
     inkscape:window-x="0"
     inkscape:window-y="27"
     inkscape:window-maximized="1"
     inkscape:current-layer="abcca033-2c1f-44c9-85fc-3aee3d04dd44" />
  <path
     d="M 12.125968,70.661058 7.1138071,70.051271 C 6.132197,69.932288 5.8644853,69.575338 5.9685955,68.682965 H 5.507536 l -0.3718219,3.063814 h 0.4610594 c 0.1189826,-0.892372 0.4610592,-1.174959 1.487288,-1.041102 l 4.9080505,0.594916 c 2.037585,0.252837 3.212543,0.966735 2.974576,2.766354 -0.163602,1.338562 -0.996483,1.963222 -3.509999,1.621146 L 6.533765,75.093177 C 5.5521549,74.95932 5.284443,74.617244 5.4034259,73.724872 H 4.9423665 L 4.39207,78.186736 h 0.4610594 c 0.1041109,-0.892373 0.4461863,-1.160084 1.4872879,-1.041102 l 5.3244917,0.639535 c 2.156568,0.282584 3.569491,-0.803136 3.866949,-3.272034 0.297457,-2.468899 -0.8775,-3.524873 -3.30178,-3.837205"
     id="path2"
     inkscape:connector-curvature="0"
     style="stroke-width:1" />
  <path
     d="M 8.3631291,59.075084 7.9169428,58.9561 7.1138071,62.153771 7.5748667,62.272755 C 7.9913074,61.097799 8.660587,61.15729 9.8206716,61.454747 l 4.5808474,1.13034 -8.0313557,2.558133 -0.7733898,3.093562 0.4461863,0.104104 A 2.5135168,2.5135168 0 0 1 7.3369004,67.19568 l 6.2912286,1.487287 c 1.249322,0.312332 1.606271,0.639535 1.487289,1.859111 l 0.446186,0.118984 0.862627,-3.450508 -0.461059,-0.104104 c -0.609789,1.204694 -0.936992,1.264186 -2.424281,0.907238 L 8.3036377,66.704873 17.227367,63.730297 17.509951,62.629702 9.9842733,60.830084 c -1.2047034,-0.31233 -1.6955083,-0.550295 -1.6211442,-1.755"
     id="path4"
     inkscape:connector-curvature="0"
     style="stroke-width:1" />
  <path
     d="M 17.167875,58.33144 10.832028,56.011271 C 9.9099088,55.669195 9.7165615,55.267626 10.028892,54.419873 L 9.5827056,54.271149 8.0954175,58.480176 8.5267309,58.628898 C 8.8390615,57.796016 9.2406291,57.60267 10.162748,57.944745 l 6.380465,2.320169 c 0.922119,0.342078 1.115467,0.728773 0.803137,1.576526 l 0.446185,0.163604 1.487289,-4.223898 -0.446187,-0.148724 c -0.31233,0.847755 -0.713898,1.02623 -1.636016,0.699027"
     id="path6"
     inkscape:connector-curvature="0"
     style="stroke-width:1" />
  <path
     d="m 29.006688,37.405296 -1.621143,-0.401568 a 3.1679237,3.1679237 0 0 0 -1.487288,-0.148729 2.6093754,2.6093754 0 1 0 -4.461866,-2.706863 l -3.316652,4.23877 0.371822,0.282584 c 0.550297,-0.713899 0.981611,-0.758515 1.755,-0.148722 l 5.458347,4.179278 c 0.773389,0.594915 0.832881,1.041102 0.267713,1.755 l 0.371822,0.282585 2.766354,-3.539745 -0.431313,-0.282586 c -0.565169,0.713898 -0.996482,0.773391 -1.769873,0.163604 l -2.48377,-1.933475 c 0.327204,-0.41644 0.743644,-0.713898 2.6325,-0.193344 l 1.844236,0.505677 a 12.954279,12.954279 0 0 0 1.264195,0.297457 l 1.90373,-2.424279 -0.356949,-0.297456 c -0.728773,0.788262 -1.680637,0.594913 -2.721738,0.37182 m -4.937796,1.130339 -0.148723,0.178464 -2.394539,-1.859108 c -0.624661,-0.490805 -0.877501,-0.728771 -0.371823,-1.383178 0.832881,-1.055973 1.680635,-1.323685 2.796103,-0.446186 1.115465,0.8775 1.383176,1.873983 0.118984,3.51"
     id="path8"
     inkscape:connector-curvature="0"
     style="stroke-width:1" />
  <path
     d="m 30.166772,30.147331 -0.699024,0.327203 c -0.773389,0.371822 -1.755,0.907245 -2.573008,0.104105 a 1.4872881,1.4872881 0 0 1 0,-2.201186 4.4618643,4.4618643 0 0 1 4.030549,-0.40157 l 0.208225,-0.461061 -2.73661,-1.561654 a 1.4872881,1.4872881 0 0 1 -0.312332,1.041102 1.3980508,1.3980508 0 0 1 -0.47593,0.282587 3.8372034,3.8372034 0 0 0 -1.174959,0.773389 2.8109745,2.8109745 0 0 0 0.118984,4.090041 c 1.695507,1.695509 3.673602,0.699025 5.279872,0 0.77339,-0.371821 1.725254,-0.832881 2.543262,0 a 1.8591101,1.8591101 0 0 1 0,2.573008 c -1.085721,1.070849 -3.04894,0.832881 -4.461864,0.40157 l -0.223093,0.47593 2.885338,1.725257 c 0.25284,-0.862629 0.312332,-0.951867 0.46106,-1.100594 a 1.4872881,1.4872881 0 0 1 0.56517,-0.342077 4.8336864,4.8336864 0 0 0 1.33856,-0.907245 3.1381779,3.1381779 0 0 0 -0.148724,-4.461866 C 33.30496,29.016982 31.683815,29.522661 30.196527,30.221686"
     id="path10"
     inkscape:connector-curvature="0"
     style="stroke-width:1" />
  <path
     d="m 38.094019,29.240084 -4.461864,-5.131143 c -0.639534,-0.728771 -0.609788,-1.174959 0.07436,-1.769872 l -0.312332,-0.342079 -3.376143,2.974579 0.297458,0.342075 c 0.684153,-0.594915 1.130339,-0.565171 1.769871,0.178485 l 4.461866,5.116271 c 0.654407,0.758516 0.609788,1.18983 0,1.769874 l 0.297458,0.356948 3.391017,-2.974576 -0.312332,-0.342076 c -0.684151,0.594915 -1.115465,0.565169 -1.755,-0.178484"
     id="path12"
     inkscape:connector-curvature="0"
     style="stroke-width:1" />
  <path
     d="m 39.923383,17.579746 a 5.0270338,5.0270338 0 0 0 -1.948348,0.936991 l -3.524872,2.573008 0.26771,0.371824 c 0.728773,-0.535425 1.160087,-0.46106 1.740129,0.327203 l 3.985931,5.488094 c 0.580044,0.803133 0.505678,1.234447 -0.223092,1.769871 l 0.282584,0.371822 3.524872,-2.558136 a 5.4732202,5.4732202 0 0 0 1.487289,-1.591398 4.9526693,4.9526693 0 0 0 -0.475931,-5.383983 4.9972881,4.9972881 0 0 0 -5.131145,-2.305296 m 3.792584,8.81962 c -0.892372,0.654406 -1.070847,0.401566 -1.695508,-0.446189 l -3.837203,-5.294744 c -0.520551,-0.713899 -0.773391,-1.055976 0,-1.636018 1.368304,-0.996482 2.84072,-0.966738 4.878304,1.844237 2.275552,3.123306 1.903729,4.610593 0.639535,5.532714"
     id="path14"
     inkscape:connector-curvature="0"
     style="stroke-width:1" />
  <path
     d="m 64.374398,10.158178 a 1.2641949,1.2641949 0 1 0 1.48729,0.892373 1.2641949,1.2641949 0 0 0 -1.48729,-0.892373"
     id="path16"
     inkscape:connector-curvature="0"
     style="stroke-width:1" />
  <path
     d="M 75.231601,5.0419068 A 4.9526693,4.9526693 0 0 0 73.075034,4.9229242 l -4.328008,0.5354236 0.08924,0.4908051 c 0.892373,-0.1041109 1.249324,0.1487295 1.368306,1.130339 l 0.818008,6.7374151 c 0.133863,0.98161 -0.148723,1.338559 -1.041101,1.487288 v 0.475932 l 4.31313,-0.535424 A 5.2203812,5.2203812 0 0 0 76.436302,14.620042 4.9526693,4.9526693 0 0 0 78.577998,9.6376273 5.0419068,5.0419068 0 0 0 75.201854,5.175763 m -0.951864,9.563262 c -1.100593,0.133856 -1.130341,-0.163602 -1.264195,-1.219576 L 72.182662,7.0497457 c -0.104104,-0.8775 -0.148723,-1.3088134 0.803137,-1.4872881 1.695507,-0.2082207 2.974576,0.5354238 3.391015,3.9710594 0.461061,3.837203 -0.580042,4.95267 -2.12682,5.146017"
     id="path18"
     inkscape:connector-curvature="0"
     style="stroke-width:1" />
  <path
     d="m 87.427365,11.987542 -0.327203,-0.20822 A 5.1757626,5.1757626 0 0 1 83.173721,14.04 c -0.892373,0 -0.966737,-0.535424 -0.966737,-1.353433 V 9.7119915 h 0.282585 a 1.888856,1.888856 0 0 1 2.201185,1.7401275 h 0.505678 V 7.4364407 h -0.490805 c -0.431314,1.4872881 -0.98161,1.6657627 -2.23093,1.6657627 h -0.25284 V 6.3061017 c 0,-1.0411017 0,-1.4872881 1.115466,-1.4872881 a 4.6849576,4.6849576 0 0 1 3.56949,2.2606779 l 0.386697,-0.1784739 -0.788264,-2.6325 H 78.93495 v 0.4908052 c 0.907247,0 1.219576,0.3123305 1.219576,1.2939406 v 6.7969076 c 0,0.981609 -0.312329,1.279067 -1.219576,1.279067 v 0.46106 h 7.555423 z"
     id="path20"
     inkscape:connector-curvature="0"
     style="stroke-width:1" />
  <path
     d="M 90.416813,10.485381 A 1.2790678,1.2790678 0 0 0 91.785118,9.3401694 1.2939406,1.2939406 0 0 0 90.639908,7.9569915 1.2691066,1.2691066 0 0 0 90.416813,10.485381"
     id="path22"
     inkscape:connector-curvature="0"
     style="stroke-width:1" />
  <path
     d="m 105.60203,8.9980932 -1.65089,5.0865258 c -0.66928,2.082203 0.11898,3.658728 2.48377,4.461864 2.36479,0.803136 3.62898,-0.178474 4.46186,-2.513517 l 1.48729,-4.803941 c 0.31233,-0.936991 0.69903,-1.130338 1.48729,-0.847754 l 0.13386,-0.4461862 -2.97458,-0.9518646 -0.14872,0.4461866 c 0.86263,0.2677117 1.07085,0.6692802 0.75852,1.6062712 l -1.48729,4.699831 c -0.63953,1.948346 -1.48729,2.974576 -3.28691,2.409406 -1.27906,-0.416441 -1.755,-1.353433 -0.93699,-3.762839 l 1.48729,-4.7147031 c 0.29744,-0.9369916 0.68414,-1.1452119 1.48728,-0.8626271 l 0.14872,-0.4313137 -4.26852,-1.3980507 -0.13386,0.4461863 c 0.84776,0.2825849 1.0411,0.6692797 0.74365,1.6062712"
     id="path24"
     inkscape:connector-curvature="0"
     style="stroke-width:1" />
  <path
     d="m 118.76453,20.28661 a 5.1608897,5.1608897 0 0 1 -4.46187,0.401567 c -0.80313,-0.371822 -0.63953,-0.892371 -0.29746,-1.636016 l 1.21958,-2.691992 0.23797,0.118984 a 1.9037288,1.9037288 0 0 1 1.27907,2.513518 l 0.43131,0.20822 1.72525,-3.688474 -0.44618,-0.208221 a 1.873983,1.873983 0 0 1 -2.72174,0.56517 l -0.2231,-0.104105 1.14522,-2.483771 c 0.44618,-0.951871 0.62466,-1.323693 1.63601,-0.862634 a 4.6552118,4.6552118 0 0 1 2.27555,3.569491 h 0.43132 l 0.40157,-2.721736 -6.8564,-3.19767 -0.19335,0.431313 c 0.81801,0.386695 0.96674,0.788263 0.5503,1.695509 l -2.85559,6.1425 c -0.41644,0.892373 -0.84776,1.041101 -1.65089,0.654406 l -0.20823,0.342077 6.8564,3.197669 1.94835,-1.978093 z"
     id="path26"
     inkscape:connector-curvature="0"
     style="stroke-width:1" />
  <path
     d="m 130.81155,19.840423 0.25285,-0.401568 -2.73662,-1.740127 -0.25283,0.401568 c 0.99648,0.758518 0.71389,1.383178 0,2.394534 l -2.48377,3.985933 v -8.418051 l -2.69199,-1.680636 -0.26772,0.386695 a 2.5432626,2.5432626 0 0 1 0.7139,1.591398 l -3.43563,5.47322 c -0.68415,1.100593 -1.1006,1.338561 -2.23093,0.892374 l -0.25284,0.386695 2.97457,1.873983 0.23797,-0.386696 c -0.95187,-0.951865 -0.90725,-1.293941 -0.10411,-2.587879 l 2.87047,-4.580849 v 9.459153 l 0.96674,0.594914 4.26851,-6.66305 c 0.65441,-1.041101 1.04111,-1.487288 2.17145,-0.996484"
     id="path28"
     inkscape:connector-curvature="0"
     style="stroke-width:1" />
  <path
     d="m 135.43702,29.597034 c 2.00785,-2.37966 2.06734,-5.190636 -0.0893,-6.990255 -2.15657,-1.799618 -5.07166,-0.966737 -6.99026,1.323688 -1.9186,2.290421 -2.06733,5.175761 0,6.930761 2.06733,1.755 5.23526,0.92212 7.04975,-1.264194 m -6.73742,0.803136 c -1.0411,-0.862628 -0.86262,-2.454026 1.39806,-5.160891 2.26067,-2.706864 3.85207,-3.093559 4.95266,-2.17144 1.1006,0.922119 0.98162,2.439151 -1.33856,5.205509 -1.23445,1.487288 -3.27203,3.599235 -5.01216,2.126822"
     id="path30"
     inkscape:connector-curvature="0"
     style="stroke-width:1" />
  <path
     d="m 137.51923,28.689787 c -1.755,1.636017 -0.83288,3.643857 -0.14872,5.279874 0.34207,0.77339 0.77338,1.755 0,2.52839 a 1.8144915,1.8144915 0 0 1 -2.55814,-0.104104 c -1.0411,-1.100594 -0.72877,-3.063814 -0.25284,-4.461864 l -0.46106,-0.237968 -1.82936,2.810975 c 0.84775,0.297458 0.95186,0.356949 1.08572,0.520551 a 2.0227118,2.0227118 0 0 1 0.3272,0.580044 4.9377965,4.9377965 0 0 0 0.84776,1.35343 3.1084321,3.1084321 0 0 0 4.46186,0 c 1.48728,-1.412924 1.08572,-3.063814 0.44619,-4.565974 l -0.29746,-0.72877 c -0.34208,-0.77339 -0.84776,-1.769875 0,-2.558137 a 1.4872881,1.4872881 0 0 1 2.20119,0.08924 c 0.86262,0.922117 0.6544,2.825846 0.25283,4.045421 l 0.46106,0.223094 1.65089,-2.677118 a 1.5765254,1.5765254 0 0 1 -1.04109,-0.356949 1.3385593,1.3385593 0 0 1 -0.25285,-0.475933 3.7777118,3.7777118 0 0 0 -0.72877,-1.189829 2.7961017,2.7961017 0 0 0 -4.09004,0"
     id="path32"
     inkscape:connector-curvature="0"
     style="stroke-width:1" />
  <path
     d="m 142.57601,37.330932 a 1.2939406,1.2939406 0 0 0 -0.25284,1.769872 1.2641949,1.2641949 0 0 0 2.02272,-1.487288 1.2790678,1.2790678 0 0 0 -1.76988,-0.252838"
     id="path34"
     inkscape:connector-curvature="0"
     style="stroke-width:1" />
  <path
     d="m 159.66495,71.211355 c -2.39453,0.237965 -2.87047,2.394535 -3.30178,4.119788 -0.19334,0.818009 -0.43131,1.85911 -1.57652,1.978093 a 1.8144915,1.8144915 0 0 1 -1.9781,-1.636017 c -0.1636,-1.487289 1.26419,-2.885338 2.51351,-3.747965 l -0.22309,-0.535425 -3.13818,1.160084 c 0.50568,0.728774 0.53543,0.832883 0.56518,1.055977 a 2.007839,2.007839 0 0 1 -0.10416,0.654406 4.8188135,4.8188135 0 0 0 -0.14872,1.591399 3.1084321,3.1084321 0 0 0 3.56949,2.706863 c 2.06733,-0.208225 2.70686,-1.784744 3.10843,-3.376145 l 0.19335,-0.773389 c 0.19335,-0.818008 0.38669,-1.918602 1.48729,-2.037585 a 1.4872881,1.4872881 0 0 1 1.69551,1.383178 c 0.13386,1.264194 -1.17496,2.662246 -2.23094,3.391017 l 0.2231,0.446186 2.97457,-1.14521 a 1.4872881,1.4872881 0 0 1 -0.62466,-0.892374 1.3534322,1.3534322 0 0 1 0.0893,-0.535425 3.4802542,3.4802542 0 0 0 0.13386,-1.412921 2.7812287,2.7812287 0 0 0 -3.24229,-2.454027"
     id="path36"
     inkscape:connector-curvature="0"
     style="stroke-width:1" />
  <path
     d="m 152.88292,103.75322 c 0,0.68415 0.59492,0.38669 0.19334,-1.63602 a 5.9491524,5.9491524 0 0 1 0.59492,-2.305293 c 0.43131,-0.490806 0.71389,-1.041103 0.41644,-1.338562 a 3.8074577,3.8074577 0 0 1 -0.16361,-2.335041 c 0.11904,-0.803137 0.78827,-4.610592 0.37182,-4.729578 0,0 -0.50567,-0.133863 -0.62465,0.907248 -0.11904,1.041101 -0.32721,3.971057 -0.49082,4.625465 -0.16359,0.654406 -1.41291,1.933476 -1.48728,2.662246 -0.0744,0.728775 0.55029,1.754995 0.66928,2.171445 a 6.5143219,6.5143219 0 0 1 0.56517,1.97809"
     id="path38"
     inkscape:connector-curvature="0"
     style="stroke-width:1" />
  <path
     d="m 161.4497,94.546907 c -0.34208,0.446186 -1.07085,0.565168 -1.32369,0.966735 -0.25284,0.40157 0.14873,2.394535 0,2.974577 a 7.1836016,7.1836016 0 0 1 -1.48729,1.992961 1.249322,1.249322 0 0 0 -0.10416,1.57653 8.7898727,8.7898727 0 0 1 -0.43131,3.79259 c -0.28258,0.77338 -0.86263,2.45402 -0.40156,2.42427 0.46106,-0.0297 1.38317,-4.46186 1.8591,-5.11627 0.47594,-0.6544 0.20823,-2.61762 0.60979,-2.12682 0.40158,0.49081 0.43132,1.32369 0.89238,1.29394 0.46106,-0.0297 0,-1.38318 -0.11904,-2.17144 a 3.5843644,3.5843644 0 0 1 0.96674,-2.587879 1.8144915,1.8144915 0 0 0 0.40157,-2.186315 c 0,0 -0.22309,-0.371822 0.0893,-1.279066 0.31234,-0.907246 1.59141,-6.24661 1.59141,-6.24661 a 18.501865,18.501865 0 0 0 -1.33856,2.245805 29.745763,29.745763 0 0 1 -1.17496,4.372625"
     id="path40"
     inkscape:connector-curvature="0"
     style="stroke-width:1" />
  <path
     d="m 71.81084,88.850593 a 1.5765254,1.5765254 0 0 0 -0.431314,0.550296 1.6062712,1.6062712 0 0 0 1.174959,0.862627 1.5765254,1.5765254 0 0 0 0.981611,0 l -0.237968,-0.431314 a 2.8407203,2.8407203 0 0 1 -0.312329,-0.490804 3.8223304,3.8223304 0 0 1 -0.25284,-0.996483 1.7847458,1.7847458 0 0 0 -0.981611,0.505678"
     id="path42"
     inkscape:connector-curvature="0"
     style="stroke-width:1" />
  <path
     d="m 122.21504,60.978811 a 10.827457,10.827457 0 0 1 -4.78907,-0.342075 c -0.74365,-0.297457 -1.38318,-2.186314 -1.72526,-3.108433 -0.34208,-0.922116 0.34208,-0.713898 0.34208,-0.713898 a 30.682755,30.682755 0 0 0 4.9378,-0.639532 c 0.99648,-0.535425 1.14521,-0.832881 0.59491,-0.788265 -0.5503,0.04463 -2.42428,0.342079 -2.42428,0.342079 a 6.9753811,6.9753811 0 0 1 -3.89669,-0.148723 c -0.69903,-0.193344 -0.65441,-0.550297 -1.33856,-1.234451 -0.68415,-0.684151 -0.59492,-0.08924 -1.68064,0.594916 -1.08572,0.684154 -0.74364,0.639535 -0.19334,0.788264 0.55029,0.148723 0.4908,-0.342078 1.38317,0.535422 a 45.362286,45.362286 0 0 1 3.31666,5.592203 c 1.21957,2.320171 3.10843,6.782034 3.80745,8.596526 0.69903,1.814491 2.57301,10.232543 2.81098,11.422374 a 67.5675,67.5675 0 0 1 0.78826,9.741735 7.9123727,7.9123727 0 0 1 -2.21606,6.127628 5.36911,5.36911 0 0 0 -1.38318,1.873983 6.5738135,6.5738135 0 0 1 -1.78474,2.781226 6.3061016,6.3061016 0 0 1 -3.46538,1.38318 32.229534,32.229534 0 0 0 2.67711,-3.56949 9.3401694,9.3401694 0 0 0 0.34208,-2.974576 1.7252542,1.7252542 0 0 1 0.34208,0.639532 1.8442373,1.8442373 0 0 0 0.50568,0.743645 c 1.48728,-0.252839 0,-2.364788 -1.14522,-4.045424 a 58.004237,58.004237 0 0 0 -5.08652,-5.547591 c 1.57652,-0.208224 1.81449,0.252841 3.55461,0.401568 1.74013,0.148722 2.27556,1.323687 2.87047,1.383179 0.59492,0.05948 0.49081,-0.297458 -1.18983,-1.33856 a 12.344491,12.344491 0 0 0 -5.57733,-1.338559 c -1.24932,0 -3.56949,0 -3.56949,0 -0.68416,-0.163604 -0.53543,-0.505677 0.83288,-1.145212 a 21.372331,21.372331 0 0 1 6.23174,-0.72877 6.9158898,6.9158898 0 0 1 3.56949,0.996482 c 0.38669,0.282585 0.58004,0 0.58004,0 -0.14872,-0.550296 -1.9186,-1.487287 -4.34288,-1.888856 -2.42428,-0.401567 -5.33936,0.743644 -4.84856,0.342077 a 11.630593,11.630593 0 0 0 1.88886,-3.108433 c 0.23796,-0.743644 -0.34208,-1.041102 -0.74365,-0.892372 -0.40157,0.148722 -0.4908,0.832881 -2.0822,2.573008 a 6.5440678,6.5440678 0 0 1 -4.59572,2.27555 36.527796,36.527796 0 0 1 -6.930764,-0.684151 c -1.487289,-0.25284 -3.599237,-0.743645 -4.59572,-0.832883 -0.996484,-0.08924 -1.026228,-0.446187 -1.026228,-0.446187 a 8.150339,8.150339 0 0 1 0.490805,-2.885337 21.476441,21.476441 0 0 1 2.364787,-3.807458 c 1.145212,-1.769873 2.037584,-1.621143 2.766356,-2.067332 0.728772,-0.446185 0,-0.505677 0,-0.505677 a 6.0830084,6.0830084 0 0 0 -2.617626,1.160084 15.631398,15.631398 0 0 0 -1.844238,-4.313134 6.4994492,6.4994492 0 0 0 3.435636,-1.264195 c 0.446186,-0.401569 1.383177,-2.677119 0.98161,-2.587882 -0.40157,0.08924 -0.743645,2.587882 -4.164407,2.766357 a 9.2955508,9.2955508 0 0 1 -5.146017,-1.933475 2.5432626,2.5432626 0 0 1 -1.055974,-1.769874 10.648983,10.648983 0 0 1 1.249321,-2.48377 5.9491524,5.9491524 0 0 0 0.490804,-3.747965 6.023517,6.023517 0 0 0 -1.204703,-2.558137 c -0.223092,-0.237965 -1.145212,-1.323687 -1.308814,-1.487288 -0.803134,-0.803137 -1.487287,-0.461061 -1.487287,-0.208225 0,0.25284 0.684153,0.996483 1.02623,1.487288 0.342074,0.490806 1.041101,0.847755 0.743644,1.338561 -0.297459,0.490805 -0.98161,0.401567 -1.933476,0.996483 -0.951864,0.594914 -7.852881,4.684955 -7.852881,4.684955 a 31.485888,31.485888 0 0 1 -6.722542,2.275552 c -1.992966,0.892373 0.535423,0.699025 1.026228,0.699025 h 13.623561 c 3.167921,-0.728772 -11.333136,-0.580042 -10.857204,-0.788262 0.475932,-0.208226 1.487289,-0.461059 2.275551,-0.788263 3.212542,-1.398052 6.782034,-3.286906 7.971865,-3.762839 1.859108,-0.743643 2.305296,-0.669279 2.602753,-0.371822 a 12.552712,12.552712 0 0 1 -0.297457,4.075171 c -0.223093,1.338557 -0.371822,2.751482 0.52055,3.495124 a 38.223304,38.223304 0 0 0 3.331526,2.141695 7.3174576,7.3174576 0 0 1 1.041102,6.529197 c -0.907247,2.216058 -3.093561,1.412922 -4.580849,1.041102 -0.713898,-0.163604 -2.022712,-0.713898 -2.335041,-0.728773 -3.599238,-0.118984 -15.512414,0.386695 -16.731993,0.118983 -1.219575,-0.26771 -1.487287,0.535424 -0.743643,0.535424 h 14.530806 a 9.4294066,9.4294066 0 0 1 5.339363,1.769872 c 0.669281,0.669282 2.260679,1.576527 1.903729,2.022712 -0.356948,0.446189 -8.388305,0.297459 -8.388305,0.297459 -1.041101,-0.148722 -1.859111,0.148723 -1.264195,0.446186 a 57.45394,57.45394 0 0 0 6.826653,0.148723 17.564873,17.564873 0 0 1 10.336653,3.316651 23.989958,23.989958 0 0 1 5.740931,6.261483 c 0.28258,0.29746 -0.4908,0 -0.31233,0.520552 a 27.782542,27.782542 0 0 0 1.38318,3.25717 c 0.11898,0.193345 -0.75852,0.178485 -0.75852,0.178485 l -20.03377,0.639532 c -1.561651,0 -1.710381,-0.743641 -1.710381,-0.743641 L 75.32084,92.04827 c -0.818009,-0.966738 -1.264195,-1.041102 -1.264195,-1.041102 a 3.2125423,3.2125423 0 0 1 -2.974576,-1.115465 c -0.892372,-0.818009 -0.818008,-0.654407 -1.487288,-0.520552 -0.669281,0.133863 -10.678729,0.743644 -10.678729,0.743644 -0.966738,-0.743644 0.594916,-1.33856 1.041101,-1.710381 a 15.824746,15.824746 0 0 0 1.115467,-1.398052 4.8336864,4.8336864 0 0 0 1.174958,-1.933473 c 0.223093,-0.818009 2.230931,-0.654408 2.230931,-0.654408 1.33856,-0.163602 4.461866,1.665763 5.562458,2.498646 1.100594,0.832881 1.353433,1.665762 1.576527,1.487287 a 2.2458052,2.2458052 0 0 1 0.818005,-0.594915 c 0.08924,0 0,-0.773389 0,-0.773389 a 14.158982,14.158982 0 0 0 -4.104913,-6.276357 c -1.48729,-1.115465 -1.859109,-1.115465 -1.710382,-0.669279 0.148722,0.446185 0.966738,0.892371 0.966738,0.892371 0,0 -0.892373,0.223094 -1.695509,0.371824 -0.803137,0.148722 -1.85911,0.535423 -1.561651,1.041101 0.297457,0.505677 0,1.115466 -1.264196,1.264194 -1.264193,0.148724 -1.48729,0.743646 -1.48729,1.189832 a 23.514025,23.514025 0 0 1 -1.71038,2.587881 8.120593,8.120593 0 0 1 -1.784745,1.487287 c -0.446186,0.29746 -0.431313,0.966739 -0.431313,1.487289 0,0.520552 0.892372,0.8775 0.892372,0.8775 -3.524872,3.539746 -3.643855,9.265807 -3.51,10.827457 0.133863,1.56165 2.052458,12.40398 2.052458,12.40398 0.936992,5.94916 0.862626,13.17738 1.011356,13.84665 0.148723,0.66928 1.903728,0.75852 3.167924,0.75852 a 2.141695,2.141695 0 0 1 2.141695,1.48729 c 0.297457,0.818 0,0.7139 0.892371,1.02623 a 3.2720339,3.2720339 0 0 0 2.305297,-0.37182 c 3.703349,-0.65441 4.461866,0.83289 5.949154,1.11547 1.487287,0.28258 2.23093,-0.37182 2.751482,0.22308 0.178485,0.20823 0.788262,0.56518 1.487288,1.21958 1.279068,1.35343 -0.312331,1.72526 -0.312331,1.72526 -1.383177,0.5503 -6.573814,0.43131 -9.830974,0.5503 -1.680636,0 -16.464279,-0.11904 -18.025933,0.28258 -1.561651,0.40156 0.81801,0.68416 0.81801,0.68416 0.490804,0 19.483473,0.14871 26.771185,0 a 17.847458,17.847458 0 0 1 2.84072,0.13386 1.4872881,1.4872881 0 0 1 0.803137,0.52055 c 0.669279,0.74363 -0.148723,2.46889 -0.565169,3.71822 -0.803136,2.33504 -0.743645,3.37614 -2.275552,4.17928 a 6.1424999,6.1424999 0 0 1 -3.435636,0.80313 c -1.338559,0 -2.082203,1.18983 -1.85911,2.60275 0.223095,1.41293 2.052459,2.24581 2.052459,2.24581 11.273644,4.0603 24.718728,-1.02623 24.718728,-1.02623 1.189831,-0.59492 0.832881,-0.50568 0.832881,-0.50568 -0.832881,0 -0.98161,-0.26771 -1.338558,-0.81801 -0.847756,-1.26419 1.799617,-2.27554 1.487288,-2.81097 -0.312332,-0.53543 -2.097078,2.45402 -2.766357,1.48729 -1.398051,-1.82936 2.21606,-2.4689 2.21606,-4.31313 0,-0.3867 0.356948,-0.80314 -0.654406,-3.07869 -0.803137,-1.62115 -1.621146,-3.22742 -1.888859,-3.88182 a 15.795,15.795 0 0 1 -2.394532,-6.321 c -0.446188,-3.1233 0.832881,-7.8975 1.487289,-7.43644 a 12.746059,12.746059 0 0 0 5.696315,2.36479 c 2.42428,1.0411 2.21606,2.02271 2.32017,3.56949 a 28.020507,28.020507 0 0 1 -0.8775,4.89319 7.272839,7.272839 0 0 0 0,4.78906 20.598941,20.598941 0 0 1 1.38317,4.69983 c 0.23797,2.27554 -2.27555,5.13115 -2.27555,5.13115 -0.59491,0.77338 -0.44618,0.86262 -0.28258,0.84775 a 3.7628388,3.7628388 0 0 0 0.77339,-0.2231 c 1.48729,-0.72877 2.72174,-3.58436 3.12331,-4.9378 a 3.4951272,3.4951272 0 0 0 -0.0892,-2.32016 13.697923,13.697923 0 0 1 -1.38318,-4.25365 19.944533,19.944533 0 0 1 0.20823,-4.06029 c 0.89237,-3.33152 1.48728,-5.75581 0.71389,-7.15386 -1.01135,-1.78474 -4.56597,-2.34991 -6.276353,-2.97457 a 11.496737,11.496737 0 0 1 -4.952675,-3.79259 22.904237,22.904237 0 0 1 -2.974577,-5.4286 c -0.758515,-1.81449 -2.052456,-4.11979 -1.383178,-5.36911 0.669279,-1.24932 1.829366,-0.52055 2.974579,-0.52055 13.385594,0 22.309314,-0.23797 25.834194,-0.62466 5.66657,-0.62466 4.29826,-5.4286 7.00513,-6.90102 1.48728,-0.788263 1.9186,-4.238771 2.05245,-6.20199 a 18.115169,18.115169 0 0 0 0.17849,1.859108 8.2247031,8.2247031 0 0 1 -0.3867,3.852079 30.876101,30.876101 0 0 1 -2.73661,3.866943 c -0.74364,1.02623 -2.0822,4.67009 -2.97457,4.96755 a 2.4688982,2.4688982 0 0 0 -1.63602,1.18983 4.744449,4.744449 0 0 0 0.37182,2.66224 c 0.37183,1.18983 0.86263,1.63602 1.48729,1.82937 0.62466,0.19334 2.66225,1.88885 4.34288,1.08572 1.68064,-0.80314 4.74445,-4.74445 4.74445,-4.74445 a 118.68559,118.68559 0 0 1 -5.74093,16.36017 c -0.90725,2.27554 -1.65089,3.8372 -0.56517,5.94915 a 5.3839829,5.3839829 0 0 0 0.77339,1.11547 c 0.0892,0.0893 0.37182,0 0.26771,-0.23797 a 3.7182202,3.7182202 0 0 1 -0.59491,-1.21957 c -0.41645,-1.85912 0.19334,-2.97458 1.29394,-5.41373 l 0.1041,-0.2231 0.11899,-0.28258 a 160.83534,160.83534 0 0 0 6.00864,-16.65763 c 0.20822,-0.89237 0.29746,-1.57652 -1.38318,-1.38318 -1.68063,0.19335 -2.57301,0 -2.46889,0.49081 0.10415,0.4908 1.0857,0.59491 0.89236,1.08572 a 16.10733,16.10733 0 0 1 -3.25715,4.26851 c -1.08573,0.69903 -1.38318,0.59492 -2.57301,-0.0892 a 10.886949,10.886949 0 0 1 -2.27555,-1.48729 c -0.49081,-0.50568 -0.58005,-1.99297 -0.89238,-2.57301 -0.31233,-0.58004 0.40157,-0.69902 0.40157,-0.69902 0.68415,-0.0892 0.98161,1.57652 1.27907,2.17144 a 2.9745763,2.9745763 0 0 0 2.57301,0.78826 c 0.58004,-0.19334 1.97809,-1.38318 2.06733,-1.96322 0.0892,-0.58004 -0.58004,-2.18631 0.1041,-3.27204 0.68415,-1.08572 4.89317,-3.27203 6.36559,-3.95618 1.47241,-0.68416 2.03758,-3.3464 2.03758,-3.3464 1.27907,-4.759323 1.48729,-14.872881 -0.10415,-24.227924 a 109.80648,109.80648 0 0 0 -3.25716,-12.061906 21.818517,21.818517 0 0 0 -2.02271,-4.461863 c -0.34208,-0.40157 -1.76988,0.654405 -1.76988,0.654405 a 17.326906,17.326906 0 0 1 -5.62194,1.08572 M 65.460074,82.1578 c 0.342076,-0.08924 1.576527,-0.267713 1.576527,-0.267713 1.487287,0 1.918601,0.773391 1.918601,0.773391 a 11.050551,11.050551 0 0 1 2.528389,4.298262 c 0.267713,0.966738 0.178485,0.966738 -1.041101,-0.520551 a 18.249025,18.249025 0 0 0 -4.461864,-3.584365 c -0.966738,-0.52055 -0.8775,-0.609789 -0.520552,-0.699024 m 27.70818,38.74385 c 0.684151,0.59492 0.669279,0.62467 0.297456,1.48729 a 11.898305,11.898305 0 0 0 -0.922119,4.17928 43.726272,43.726272 0 0 1 -1.710381,-9.07246 7.7785169,7.7785169 0 0 0 2.335044,3.36128 m 14.337496,-15.34882 c -8.001606,0.62466 -20.360969,1.76987 -24.956689,-2.37966 a 23.142203,23.142203 0 0 1 -3.123306,-2.97458 8.3585593,8.3585593 0 0 0 -2.810974,-2.528387 c -0.520552,-0.148724 -0.669279,0.148722 0.223094,0.892371 0.892372,0.743646 2.810973,2.825846 2.58788,3.346396 -0.223093,0.52055 -0.743645,-0.37182 -1.85911,-0.96673 a 6.2317373,6.2317373 0 0 0 -4.580846,-0.2231 c 0,0 -0.892374,0.81801 -0.08924,0.89238 0.803136,0.0744 3.123306,-1.11547 8.611398,3.77771 5.488093,4.89318 6.901017,6.90101 7.436442,10.32178 0.535422,3.42076 2.513515,15.5719 4.952669,19.85529 2.439151,4.28339 4.090042,6.33585 2.974575,7.957 -1.115466,1.62113 -5.205508,2.87046 -7.956991,6.11275 -1.710381,2.02271 -4.298262,3.06381 -5.47322,2.70686 0,0 -0.892373,-0.29745 0.148723,-0.96674 0,0 0.505677,-0.31233 0,-0.60979 0,0 -0.237966,0 -0.892373,0.66928 -0.654406,0.66929 -1.33856,1.2642 -2.082203,0.59492 -0.743646,-0.66928 0.07436,-0.89238 0.594916,-1.18982 0.520549,-0.29746 0.446186,-0.66928 -0.223096,-0.37184 -0.669279,0.29746 -1.487288,1.33857 -2.513515,1.04111 -1.026229,-0.29746 -0.297459,-0.74365 0.133863,-1.04111 0.431314,-0.29744 0,-0.5949 -0.594916,-0.14871 -0.594914,0.44619 -0.951863,1.2642 -1.992965,1.04109 -1.041101,-0.22308 -1.115465,-0.89236 -0.297458,-1.33855 0.818009,-0.44619 1.33856,-0.59492 1.189831,-0.95186 -0.148723,-0.35695 -0.818009,0.20822 -1.784745,0.6544 -0.966737,0.44619 -1.636017,0.81801 -2.36479,-0.37182 -0.72877,-1.18983 0.371823,-2.06733 1.48729,-1.99297 a 13.251738,13.251738 0 0 0 6.752288,-2.67711 c 1.487288,-1.4873 2.677119,-4.46187 8.819619,-5.78555 0,0 2.305296,-0.14873 2.37966,-0.59492 0.07436,-0.44619 -0.371821,-0.59492 -2.007838,-0.59492 a 13.489703,13.489703 0 0 0 -10.128431,5.25012 24.52538,24.52538 0 0 1 1.100594,-3.64385 c 0.832881,-1.93347 6.529195,-4.29826 6.529195,-5.17576 0,-0.8775 -3.852076,0.1636 -4.194154,-0.66928 -0.966736,-2.45403 -1.487288,-3.49513 -2.335041,-5.47322 -0.07436,-0.20823 -0.728773,0 -2.394535,-0.37183 a 26.860423,26.860423 0 0 0 -2.766354,-0.86262 c -0.118984,0.22309 0.609787,1.01135 1.636015,2.75148 a 28.927755,28.927755 0 0 1 1.48729,2.66225 c 0.252837,0.56517 -2.349916,0 -2.825849,-0.86263 -1.888854,-2.97458 -2.706864,-4.74445 -4.684956,-7.74877 0,0 -0.431314,-0.7139 1.353431,0.11898 0.818008,0.3867 6.588685,3.48026 10.411017,1.87399 2.349915,-1.01136 2.751482,-3.04895 2.543263,-3.46539 -0.208224,-0.41644 0,0.25284 -0.416441,1.0411 -0.520552,1.13034 -2.320169,2.82585 -5.874787,1.6509 -1.338562,-0.43132 -2.6325,-3.12331 -3.926443,-3.80746 a 23.633007,23.633007 0 0 1 -6.901017,-2.97458 56.516948,56.516948 0 0 1 -5.383983,-3.58436 c -0.72877,-0.52055 -1.769871,-0.14873 -0.72877,1.26419 1.041102,1.41293 9.280678,12.52297 9.578136,13.57894 0.297458,1.05597 -0.08924,1.99296 -1.725255,1.02623 a 3.7182202,3.7182202 0 0 0 -2.974576,-0.38669 c -1.487287,0.59491 -3.108433,1.48729 -3.420763,0 -0.312329,-1.48729 0,-4.46187 -0.8775,-5.94916 0,0 -0.966737,-1.0411 -0.594913,0.66928 a 9.7566101,9.7566101 0 0 1 0.356948,3.10844 c 0,0.52054 -0.133864,0.59492 -1.100594,0.74363 -0.966738,0.14873 -2.082203,0 -2.37966,-0.66927 -0.297459,-0.66928 0,-9.56326 -1.621145,-16.01809 -1.621145,-6.45483 -3.361271,-16.55352 1.531907,-20.033774 a 8.7303813,8.7303813 0 0 1 3.569492,-1.249322 c 1.710381,0 6.886144,-0.446186 6.886144,-0.446186 0,0 1.338559,1.769872 2.454024,1.769872 1.115468,0 1.918601,0 2.230933,0.29746 0.31233,0.297456 6.216865,6.663049 6.737416,7.198473 0.520549,0.535425 1.338557,0.580044 2.528389,0.446186 1.189831,-0.133864 18.72496,-0.535424 20.06352,-0.669278 1.33856,-0.133865 2.7961,0 2.51352,-0.29746 a 17.505381,17.505381 0 0 1 -2.02272,-4.268515 c -0.1636,-0.431314 0.66928,-0.133863 0.46106,-0.475933 a 39.234661,39.234661 0 0 0 -2.49864,-3.286906 c -0.89237,-1.02623 0.90724,-0.594916 2.82585,0.743644 a 40.15678,40.15678 0 0 1 4.01567,3.718219 c 0.28259,0.580043 0.65441,0.431314 0.35695,-0.223093 -0.29745,-0.654407 -3.10843,-3.837204 -9.637627,-7.213347 0,0 7.942117,0 11.050557,2.379661 3.10843,2.379662 6.67792,5.770678 5.11627,10.083809 0,0 -0.32721,4.64034 -8.62627,5.265 m 22.93398,-35.233853 a 27.143007,27.143007 0 0 1 1.8591,6.231738 c 0,0.594916 0.81801,13.489703 0.96674,18.085423 0.14873,4.595721 -0.53543,6.752292 -1.2047,7.942122 -0.66928,1.18983 -4.96754,3.25716 -5.77068,3.77771 a 24.257668,24.257668 0 0 0 -2.97458,3.64385 c -0.74364,0.8775 -1.48728,0.72878 -1.56165,0 -0.0744,-0.72877 1.56165,-2.45402 1.56165,-2.45402 a 28.898007,28.898007 0 0 1 3.92645,-6.15737 8.4626694,8.4626694 0 0 0 1.04109,-6.380469 c -0.29744,-1.636018 -2.45402,-12.820424 -2.82584,-14.307711 -0.37182,-1.487289 -0.44619,-6.677925 -0.8775,-7.927247 -0.43131,-1.249323 -2.00784,-2.528389 -2.97458,-4.015678 a 19.438855,19.438855 0 0 1 -2.60275,-6.1425 c -0.13386,-1.487287 1.85911,-1.041102 1.85911,-1.041102 2.73661,0.163605 6.90101,0 6.90101,0 0.89238,2.007841 1.63602,6.603559 2.67713,8.670891"
     id="path44"
     inkscape:connector-curvature="0"
     style="stroke-width:1" />
  <path
     d="m 106.1077,33.151653 a 7.5554236,7.5554236 0 0 1 -1.48728,-2.974576 c -0.20823,-0.08924 -0.5503,1.591398 -0.59492,2.02271 -0.0446,0.431314 -0.38669,1.680636 -1.48729,1.48729 -1.10059,-0.193344 -2.617624,-2.00784 -2.617624,-2.00784 a 7.3323306,7.3323306 0 0 0 -3.941314,-3.420762 9.5483897,9.5483897 0 0 1 -3.956186,-3.108433 38.907458,38.907458 0 0 0 -2.870468,-3.703347 l -2.12682,-2.037585 c -0.446185,-0.282585 -0.639534,-0.327204 -0.446185,0 0.193343,0.327204 2.0822,2.900212 2.0822,2.900212 1.27907,1.487287 3.465384,4.74445 4.357755,5.488093 a 6.4845762,6.4845762 0 0 0 2.260678,1.085721 l -0.297457,0.505677 c -0.342075,0.490805 0,0.788264 0.252838,0.788264 0.25284,0 0.996485,-0.594916 0.996485,-0.594916 l 0.773389,0.535423 a 3.7925847,3.7925847 0 0 1 -0.98161,1.48729 c -0.788264,0.788262 -1.189831,0.297457 -1.680637,0 -0.490805,-0.297459 -0.297456,0.252838 -0.297456,0.252838 a 2.111949,2.111949 0 0 0 1.888855,0.535424 19.855296,19.855296 0 0 0 2.067331,-1.621146 l 2.230936,3.643858 c 1.48728,2.528389 3.65872,2.528389 5.23525,2.870465 1.2047,0.267712 5.53271,1.219575 8.12059,1.918602 a 9.7566101,9.7566101 0 0 1 3.31666,1.948347 46.700846,46.700846 0 0 1 3.58436,5.235254 c 1.14521,1.873983 3.86695,7.02 3.95619,7.362078 0.0892,0.342076 -0.74365,0.892371 -0.46106,0.996482 0.28258,0.104105 0.99648,-0.163604 1.94834,-0.996482 a 1.8144915,1.8144915 0 0 0 0.23797,-2.126823 21.565677,21.565677 0 0 0 -1.68063,-3.807458 33.463982,33.463982 0 0 1 -2.51352,-6.76716 9.622754,9.622754 0 0 1 0.28258,-4.655213 4.8336864,4.8336864 0 0 0 0.2231,-0.594915 2.4094069,2.4094069 0 0 1 1.27906,-1.234448 3.9264405,3.9264405 0 0 1 2.06733,0 c 0.10411,0 0.14873,-0.223095 0,-0.25284 a 3.3017796,3.3017796 0 0 0 -2.2458,0 2.8258473,2.8258473 0 0 0 -1.48729,0.996483 8.9237288,8.9237288 0 0 0 -1.30881,5.502965 26.399366,26.399366 0 0 0 1.57652,7.674406 c 0,0 -4.10491,-6.677921 -5.57733,-8.745252 a 10.797712,10.797712 0 0 0 -6.23173,-3.822332 7.7933898,7.7933898 0 0 1 -4.46187,-2.662244"
     id="path46"
     inkscape:connector-curvature="0"
     style="stroke-width:1" />
  <path
     d="m 89.345967,14.724152 a 21.967245,21.967245 0 0 1 5.250128,-0.892373 10.306907,10.306907 0 0 1 4.789067,1.873984 c 0.788258,0.550297 2.409408,1.279067 3.480258,1.873983 a 5.9491524,5.9491524 0 0 1 1.66576,1.903728 23.588389,23.588389 0 0 1 1.48729,3.286906 c 0.0892,0.654407 0.14872,2.573008 0.38669,2.573008 0.23797,0 0.46106,-0.684151 0.35695,-1.130337 -0.1041,-0.446185 0,-0.699026 0.68415,-0.639534 0.68416,0.05948 0.99649,0.684153 1.88886,0.580043 0.89237,-0.104105 0.68415,-1.487288 0.28258,-1.725256 -0.40157,-0.237965 -1.18983,-0.684151 -1.99296,-1.160084 a 10.411017,10.411017 0 0 1 -1.87399,-1.784746 c -0.37182,-0.535424 -0.75851,-1.145211 -1.11546,-1.710381 a 11.422373,11.422373 0 0 0 -2.02271,-2.186314 2.5878814,2.5878814 0 0 0 0.71389,-1.353432 c 0.43132,-1.844237 -0.83288,-2.721737 -2.11194,-3.376144 a 2.6324999,2.6324999 0 0 0 2.87046,-1.7698726 c 0.28259,-1.2195761 -0.13385,-2.4540254 -3.25716,-3.1827963 l -4.461863,-1.026229 -0.104111,0.4610592 c 0.892373,0.2082208 1.115466,0.5800425 0.907247,1.4872883 L 95.800798,12.775805 94.68533,12.656822 a 8.135466,8.135466 0 0 0 -2.647371,0.312331 c -1.234449,0.520551 -2.974576,1.338559 -2.974576,1.338559 -0.996483,0.624661 -0.40157,0.580043 0.282584,0.431314 m 9.80123,-7.6595341 a 1.1600847,1.1600847 0 0 1 0.312328,-0.6990255 1.1600847,1.1600847 0 0 1 0.922115,0 1.7103814,1.7103814 0 0 1 1.48729,2.3350425 c -0.3272,1.4872881 -1.14521,1.8293641 -2.677114,1.4872881 l -0.699027,-0.163602 z m -1.487289,6.4399581 0.669279,-2.900212 0.699027,0.163601 c 2.245806,0.520551 2.394536,1.487289 2.111946,2.766356 a 2.9745763,2.9745763 0 0 1 -0.74364,1.487287 l -2.810977,-1.18983 z"
     id="path48"
     inkscape:connector-curvature="0"
     style="stroke-width:1" />
  <path
     d="m 56.551264,9.2955508 a 5.5327118,5.5327118 0 0 0 -2.126822,0.4610593 l -4.030552,1.6360169 0.163604,0.431313 c 0.832883,-0.342076 1.249323,-0.178473 1.621145,0.743645 l 2.543262,6.291229 c 0.223093,0.580041 0.237968,0.951863 0,1.234449 -0.892372,0.371822 -1.338559,-0.178475 -2.037584,-0.892373 l -6.157373,-6.246611 -1.279067,1.487289 1.412922,7.585169 c 0.223094,1.204704 0.342078,1.933475 -0.490804,2.810975 l 0.223092,0.401567 2.974579,-1.606272 -0.237968,-0.401566 A 1.0708474,1.0708474 0 0 1 47.64241,22.859618 4.4618643,4.4618643 0 0 1 47.285461,21.699534 l -0.193344,-0.8775 2.796102,-1.487288 1.204703,1.234449 a 4.253644,4.253644 0 0 1 0.520552,0.639534 c 0.208226,0.386694 0.133863,0.62466 -0.565171,1.041102 l 0.223094,0.401567 2.974577,-1.606271 4.045423,-1.710381 a 5.2947457,5.2947457 0 0 0 1.903723,-1.145213 4.9972881,4.9972881 0 0 0 0.773389,-5.36911 5.0567796,5.0567796 0 0 0 -4.461864,-3.4951263 m -9.518644,10.7530933 -0.892373,-4.670086 3.286907,3.346399 z m 11.110043,-1.279068 c -1.02623,0.401568 -1.145213,0.118984 -1.487288,-0.862627 l -2.498645,-6.03839 c -0.327203,-0.818008 -0.490805,-1.219576 0.416441,-1.576525 1.576527,-0.6395343 2.974576,-0.252839 4.28339,2.974575 1.487288,3.599238 0.72877,4.95267 -0.713898,5.547586"
     id="path50"
     inkscape:connector-curvature="0"
     style="stroke-width:1" />
  <path
     d="m 24.11351,43.042118 a 5.1757626,5.1757626 0 0 1 0,4.461865 c -0.461059,0.758516 -0.966738,0.535422 -1.680636,0.118984 l -2.677118,-1.517034 0.14873,-0.223093 a 1.888856,1.888856 0 0 1 2.632499,-0.996483 l 0.252839,-0.416441 -3.480254,-2.097076 -0.267711,0.416441 a 1.873983,1.873983 0 0 1 0.282584,2.766356 l -0.133857,0.223092 -2.349914,-1.487288 C 15.948299,43.756018 15.59135,43.532924 16.156519,42.58106 a 4.6254661,4.6254661 0 0 1 3.792585,-1.888856 v -0.431315 l -2.662246,-0.684151 -3.852076,6.499451 -1.115466,2.617625 0.41644,0.208225 a 0.96673726,0.96673726 0 0 1 1.368305,-0.475933 3.3463982,3.3463982 0 0 1 0.77339,0.594915 l 4.030551,3.807454 -6.291229,-0.936992 a 2.0227118,2.0227118 0 0 1 -0.609788,-0.133857 c -0.297457,-0.148729 -0.431313,-0.327203 -0.10411,-1.160084 l -0.416441,-0.193344 -1.8293641,3.747966 0.4164411,0.208226 c 0.535423,-0.832891 1.576525,-0.56518 2.498644,-0.431322 l 8.269322,1.204703 0.46106,-0.951866 -6.008645,-5.547584 c -1.487288,-1.338559 -1.487288,-1.710381 -1.264195,-2.498643 0.401567,-0.520552 0.818008,-0.535424 1.487288,-0.08924 l 5.815296,3.495127 c 0.847756,0.505678 0.951865,0.936992 0.490805,1.710381 l 0.40157,0.237965 3.896693,-6.484575 -1.769874,-2.141695 z"
     id="path52"
     inkscape:connector-curvature="0"
     style="stroke-width:1" />
  <path
     d="m 140.50868,42.967754 -0.40156,0.252837 1.76986,2.825849 0.3867,-0.252839 a 1.0559746,1.0559746 0 0 1 0.28258,-1.487288 4.0751694,4.0751694 0 0 1 1.14521,-0.41644 l 0.89238,-0.223093 1.69551,2.691992 -1.16009,1.279066 a 3.5843644,3.5843644 0 0 1 -0.60979,0.550297 c -0.35695,0.223092 -0.62466,0.163604 -1.07084,-0.505678 l -0.40158,0.252839 2.0376,3.257161 1.97808,4.03055 0.41645,-0.193344 c -0.40157,-0.818009 -0.25284,-1.23445 0.62466,-1.665765 l 6.09788,-2.974574 c 0.89238,-0.431315 1.30881,-0.282585 1.71038,0.535423 l 0.41644,-0.208224 -1.97809,-4.030551 -0.41645,0.208226 c 0.40157,0.803136 0.26772,1.219577 -0.62465,1.650891 l -6.09789,2.974575 c -0.69902,0.342077 -1.11546,0.327205 -1.48728,-0.104104 -0.58004,-0.966739 0,-1.487289 0.68415,-2.230933 l 5.94915,-6.439957 -1.48729,-1.219577 -7.5108,1.814492 c -1.18984,0.282585 -1.91861,0.446186 -2.84072,-0.35695 m 9.38479,-0.594916 -3.16793,3.465381 -1.48729,-2.33504 z"
     id="path54"
     inkscape:connector-curvature="0"
     style="stroke-width:1" />
  <path
     d="m 155.57491,53.631608 -6.42509,2.320171 c -0.93698,0.342077 -1.33856,0.148724 -1.63602,-0.699025 l -0.44618,0.163604 1.48729,4.223897 0.59491,-0.148722 c -0.31233,-0.847754 -0.11891,-1.249322 0.80314,-1.591398 l 2.97457,-1.070847 c 0.17846,0.490805 0.20823,1.011355 -1.24932,2.335042 l -1.39805,1.293941 a 10.63411,10.63411 0 0 0 -0.92212,0.907244 l 0.80314,2.26068 1.71039,7.362076 2.75147,0.327203 0.11903,-0.371822 a 5.146017,5.146017 0 0 1 -3.09355,-3.316653 c -0.19335,-0.862627 0.3272,-1.070847 1.11546,-1.249322 l 2.88534,-0.669279 v 0.282584 a 1.873983,1.873983 0 0 1 -1.20471,2.52839 l 0.10416,0.475933 3.97107,-0.907247 -0.10416,-0.475933 c -1.48728,-0.08924 -1.84424,-0.580049 -2.12683,-1.799625 v -0.237967 l 2.67713,-0.62466 c 1.01135,-0.237968 1.48728,-0.327204 1.68062,0.758517 a 4.6998304,4.6998304 0 0 1 -1.39804,3.985931 l 0.25284,0.342077 2.39454,-1.368305 -1.71039,-7.347203 -0.44619,0.104105 c 0.20823,0.8775 0,1.249319 -0.98161,1.487287 l -6.61843,1.487288 c -0.68415,0.163604 -1.07084,0.08924 -1.29393,-0.297459 -0.2826,-1.041102 0.38668,-1.725253 1.13033,-2.498643 l 1.20471,-1.160084 a 3.0638136,3.0638136 0 0 0 0.89236,-1.174959 2.6324999,2.6324999 0 0 0 3.19768,1.398052 2.6622458,2.6622458 0 0 0 1.48728,-3.703348 l -1.84423,-5.071651 -0.43131,0.163604 c 0.3272,0.847752 0.13386,1.234448 -0.78827,1.576523 m 2.12682,2.335044 c 0.47594,1.264193 0.23797,2.111947 -1.10059,2.602752 -1.33857,0.490805 -2.32017,0.178485 -2.97458,-1.769871 v -0.223094 l 2.84072,-1.02623 c 0.75852,-0.282584 1.1006,-0.37182 1.3683,0.416443"
     id="path56"
     inkscape:connector-curvature="0"
     style="stroke-width:1" />
  <path
     d="m 104.29321,149.96326 c 0,0 0.20823,0.11903 0.28259,0.17846 0.0744,0.0595 0.72877,0.37183 1.81449,2.26068 1.08572,1.88885 3.82233,5.94916 3.82233,5.94916 0,0 0.3272,0.47592 0.65441,0.40156 0.3272,-0.0744 0.23796,-0.60978 0.23796,-0.60978 l 0.25284,-3.76285 a 2.7366101,2.7366101 0 0 1 1.48729,0 5.5922033,5.5922033 0 0 1 3.31665,2.3053 c 0,0 0.20823,0.2231 0.34208,0.20823 a 0.98161016,0.98161016 0 0 0 0.46106,-0.11903 l 0.95186,-0.60979 c 0,0 0.14872,-0.26771 -0.19334,-0.2231 -0.34208,0.0446 -0.83289,-0.58004 -1.32369,-1.01135 a 7.4364405,7.4364405 0 0 0 -3.15305,-1.74014 3.1976694,3.1976694 0 0 0 1.69551,-3.1233 c -0.31233,-1.78474 -1.30882,-2.78123 -2.88534,-2.76635 a 10.411017,10.411017 0 0 0 -1.60627,0.20822 c -0.32721,0 -0.29746,0.23797 -0.29746,0.40157 0,0.16361 0,7.83801 0,7.83801 l -3.25716,-5.13114 c 0,0 -0.58005,-0.7734 -0.11899,-1.2642 0.10411,0 0.14873,-0.0893 0.11899,-0.16361 -0.0298,-0.0744 -0.13387,-0.10415 -0.13387,-0.10415 a 20.167627,20.167627 0 0 0 -2.29042,0.62465 c -0.13387,0 -0.22309,0.14873 -0.14872,0.25285 m 7.19847,-1.23445 c 1.01136,0 1.30881,0 1.69551,0.4908 a 1.9632203,1.9632203 0 0 1 -0.13386,2.40941 2.7366101,2.7366101 0 0 1 -1.48729,0.80313 z"
     id="path58"
     inkscape:connector-curvature="0"
     style="stroke-width:1" />
  <path
     d="m 136.96893,131.92246 3.25717,2.84072 c 1.84424,1.48728 2.46889,2.32017 2.37965,2.70686 -0.0893,0.38669 0.14873,0.41644 0.34209,0.14873 0.19334,-0.26772 1.07084,-1.24932 2.12682,-2.66225 a 2.8109745,2.8109745 0 0 0 0.17848,-2.97457 11.258771,11.258771 0 0 0 -5.94915,-4.46187 1.9186017,1.9186017 0 0 0 -2.00784,0.40156 c -0.3867,0.40158 -2.05246,2.29043 -2.05246,2.29043 -0.34208,0.3867 -0.17849,0.40156 0.17847,0.4908 a 5.502966,5.502966 0 0 1 1.48728,1.20471 m 1.14522,-2.57301 a 1.2047034,1.2047034 0 0 1 1.65088,0 c 0.80314,0.58004 3.92644,3.45051 3.92644,3.45051 a 1.3236865,1.3236865 0 0 1 0.13386,1.84424 l -0.56517,0.7139 -5.7558,-5.22039 z"
     id="path60"
     inkscape:connector-curvature="0"
     style="stroke-width:1" />
  <path
     d="m 103.23724,155.92728 a 2.3201695,2.3201695 0 0 0 0.93699,-0.8775 2.8853388,2.8853388 0 0 0 -0.29746,-2.75148 2.3499153,2.3499153 0 0 0 -2.76635,-1.07084 c -0.34208,0 -2.974582,0.65441 -2.974582,0.65441 -0.342075,0 -0.461057,0.25283 -0.208224,0.35694 l 0.41644,0.2231 a 1.7103814,1.7103814 0 0 1 0.580043,1.08572 c 0.282584,1.62114 0.981611,5.63682 1.219573,7.16873 a 1.249322,1.249322 0 0 1 -0.11898,1.02622 c -0.08924,0.11903 0,0.2231 0.13386,0.2231 0.13387,0 4.46187,-0.59492 5.54759,-1.48729 a 2.6473728,2.6473728 0 0 0 0,-3.68847 3.361271,3.361271 0 0 0 -2.45403,-0.80315 m -2.97458,-3.10842 a 0.16360168,0.16360168 0 0 1 0.14873,-0.20823 c 0.46106,-0.0893 1.48729,-0.43131 2.03758,0.17846 a 1.6360169,1.6360169 0 0 1 0.40157,1.57652 1.249322,1.249322 0 0 1 -0.8775,0.90726 l -1.11547,0.25284 z m 3.53975,6.6928 a 15.333941,15.333941 0 0 1 -1.96322,0.52054 l -0.47593,-2.81097 1.39805,-0.23797 a 1.7847458,1.7847458 0 0 1 1.48729,0.60979 1.2195763,1.2195763 0 0 1 -0.47594,1.91861"
     id="path62"
     inkscape:connector-curvature="0"
     style="stroke-width:1" />
  <path
     d="m 93.391391,152.37267 a 3.4058898,3.4058898 0 0 0 -2.796102,0.92211 c -1.933476,2.21607 -1.293941,5.04191 -0.832881,6.85641 0.62466,2.42427 3.465381,4.04542 5.413727,2.75148 1.948349,-1.29394 2.022713,-4.37263 1.487289,-6.61844 A 4.6700846,4.6700846 0 0 0 93.3319,152.37267 m 0.490805,9.68225 a 1.6955085,1.6955085 0 0 1 -1.992968,-0.96674 18.07055,18.07055 0 0 1 -0.996483,-5.04191 2.5283898,2.5283898 0 0 1 1.606272,-2.66225 c 1.48729,-0.26771 2.320171,1.30882 2.454025,2.05246 l 0.550297,3.71822 c 0,0 0.46106,2.46889 -1.621143,2.90022"
     id="path64"
     inkscape:connector-curvature="0"
     style="stroke-width:1" />
  <path
     d="m 88.632069,163.11089 a 23.915592,23.915592 0 0 0 -1.487288,-3.68847 3.1679237,3.1679237 0 0 0 -0.788265,-0.92213 2.7663559,2.7663559 0 0 0 1.189832,-2.61762 2.5878814,2.5878814 0 0 0 -2.6325,-2.42428 h -3.628983 c 0,0 -0.252839,0.14872 0,0.25284 a 0.99648304,0.99648304 0 0 1 0.490805,1.05597 v 7.65953 c 0,0 0.118984,0.89238 -0.446186,1.17496 0,0 -0.178484,0.26772 0.133864,0.26772 h 2.007839 c 0.41644,0 0.297457,-0.17849 0.178465,-0.31233 a 2.111949,2.111949 0 0 1 -0.193345,-1.1006 V 158.768 a 2.007839,2.007839 0 0 1 2.186311,1.08573 15.170339,15.170339 0 0 1 1.48729,3.73308 c 0,0.22311 -0.208224,0.14873 -0.193344,0.31234 0.01492,0.1636 0.72877,0.0893 0.936992,0 0.684153,0 1.249322,0.1636 1.308813,0 0.05951,-0.16361 -0.193344,0 -0.594916,-0.80314 m -3.316651,-6.12762 a 3.9710591,3.9710591 0 0 1 -1.621144,0 v -2.45402 a 1.8591101,1.8591101 0 0 1 1.219575,0 1.0708474,1.0708474 0 0 1 0.832881,0.80313 c 0.104104,0.50568 0.133863,1.33855 -0.431312,1.68064"
     id="path66"
     inkscape:connector-curvature="0"
     style="stroke-width:1" />
  <path
     d="m 66.709442,151.89673 c 0,-0.19334 -0.133863,-0.58004 -0.178464,-0.818 a 0.72877117,0.72877117 0 0 0 -0.431313,-0.53543 c -1.160084,-0.40157 -4.908052,-1.65088 -5.41373,-2.00784 0,0 -0.297457,-0.17848 -0.669279,0.17847 -0.371823,0.35695 -0.490805,0.59492 -0.624661,0.72877 -0.133863,0.13386 0,0.17846 0.118984,0.19334 a 9.4740253,9.4740253 0 0 1 2.007838,0.84775 c 0,0 0.818008,0.32721 0.609788,1.08573 0,0 -1.888855,5.53271 -2.12682,6.06814 a 1.3088135,1.3088135 0 0 1 -2.349916,-0.2826 c -0.684153,-1.8591 -0.594915,-3.85207 -1.636017,-4.7147 a 3.1679237,3.1679237 0 0 0 1.978094,-2.08219 3.2869069,3.2869069 0 0 0 -0.639535,-2.97459 2.6324999,2.6324999 0 0 0 -0.609789,-0.43131 c -0.862626,-0.35695 -3.257159,-1.35344 -3.480252,-1.48729 -0.223094,-0.13386 -0.267713,0 -0.237968,0.28258 a 1.4872881,1.4872881 0 0 1 -0.118984,0.95188 c -0.133863,0.29746 -3.078686,7.71902 -3.391017,8.25445 a 0.81800846,0.81800846 0 0 1 -0.728771,0.47592 c 0,0 -0.312331,0 -0.178484,0.20823 l 2.171439,1.07085 c 0.133864,0 0.237967,-0.0893 0.118984,-0.31233 a 1.4872881,1.4872881 0 0 1 0.312329,-1.2642 l 1.368305,-2.88534 a 0.35694915,0.35694915 0 0 1 0.535424,-0.20823 c 0.223093,0.10416 1.859111,0.86264 2.230933,1.63602 0.609789,1.24933 0.312329,4.46187 2.186314,5.33937 1.873983,0.8775 2.840718,0.71389 3.614111,-0.49081 a 51.757626,51.757626 0 0 0 2.454023,-6.66305 0.9369915,0.9369915 0 0 1 0.936992,-0.53542 14.872881,14.872881 0 0 1 1.903728,0.53542 0.22309322,0.22309322 0 0 0 0.267713,-0.20822 m -11.898305,-0.74365 a 4.9229237,4.9229237 0 0 1 -1.398049,-0.53542 l 0.981608,-2.51351 c 0.193344,-0.50569 1.219578,0 1.219578,0 0.907244,0.47593 0.758514,1.02623 0.490804,1.78474 -0.267712,0.75852 -0.654406,1.3683 -1.293941,1.24932"
     id="path68"
     inkscape:connector-curvature="0"
     style="stroke-width:1" />
  <path
     d="m 38.138638,135.53656 a 0.86262712,0.86262712 0 0 0 -0.535425,-0.19334 c -0.133863,0 -0.25284,0.11903 -0.193344,0.37183 0.05948,0.25283 0.475931,0.50567 -0.594916,1.11545 l -4.461866,3.06383 1.100594,-6.21687 c 0,0 0.148723,-0.49081 0,-0.69903 -0.148724,-0.20822 -0.475931,-0.68416 -0.832881,-0.43131 l -5.146017,5.07165 c 0,0 -1.174956,1.04111 -1.918602,0.818 0,0 -0.684151,-0.34207 -0.505678,0.16361 0,0.1636 1.755,1.63602 1.933475,1.88885 0.431314,0.52057 0.580042,0.2826 0.550296,0 a 1.3534322,1.3534322 0 0 1 0.148723,-0.74363 31.619745,31.619745 0 0 1 3.777712,-3.58437 c 0.297457,-0.23797 0.371822,0 0.178485,0.69903 -0.193345,0.69903 -1.39805,5.32448 -1.487289,5.60708 -0.08924,0.28258 0,0.56516 0.282586,0.53542 a 12.760932,12.760932 0 0 0 2.097077,-1.39806 l 2.974576,2.11195 a 7.4364405,7.4364405 0 0 1 -0.609788,1.82938 0.89237288,0.89237288 0 0 1 -0.684154,0.16359 c -0.208224,0 -0.401567,0 -0.297456,0.31233 l 2.201186,1.66576 c 0,0 0.416441,0.23797 0.371822,-0.25283 a 3.4951272,3.4951272 0 0 1 0.193345,-1.2642 c 0.25284,-0.93699 1.978092,-8.16522 2.32017,-9.22118 0,0 0.148723,-0.44619 0,-0.59492 -0.148723,-0.14873 -0.56517,-0.52055 -0.862627,-0.81801 m -2.320169,6.36559 -1.814494,-1.35342 2.766358,-2.12683 z"
     id="path70"
     inkscape:connector-curvature="0"
     style="stroke-width:1" />
  <path
     d="m 18.045375,119.42924 a 3.2720339,3.2720339 0 0 0 3.866949,-0.13387 2.9745763,2.9745763 0 0 0 0.371822,-3.18279 c -0.223092,-0.60979 -2.06733,-3.97106 -2.27555,-4.31314 -0.208221,-0.34207 -0.461061,-0.0892 -0.416442,0.26771 0.04463,0.35695 -0.743644,0.46106 -0.743644,0.46106 0,0 -7.243093,0.3867 -8.641143,0.49081 -1.3980512,0.1041 -1.7550004,-0.5503 -1.7550004,-0.5503 0,0 -0.4313135,0 -0.3866949,0.11899 l 1.1154661,2.42428 c 0.3420762,0 2.8555932,0 2.8555932,0 0,0 1.799619,2.97457 1.829365,3.19766 a 2.4837712,2.4837712 0 0 1 -1.279068,1.21958 c -0.282585,0.0892 -0.56517,-0.17848 -0.624662,-0.20822 a 0.20822034,0.20822034 0 0 0 -0.282584,0.0892 l 1.18983,2.39454 a 0.22309322,0.22309322 0 0 0 0.282585,0 23.17195,23.17195 0 0 1 3.063813,-3.15305 c 0.416441,0.56517 0.520551,0.74364 0.401568,2.17144 -0.118984,1.42779 -2.320169,3.43563 -2.320169,3.43563 l 1.115466,1.74013 c 0,0 0.163602,0.0892 0.223094,-0.11898 a 0.87749999,0.87749999 0 0 1 0.118984,-0.37182 c 0.356949,-0.59492 0.966736,-1.72526 1.368304,-2.3053 a 5.6368219,5.6368219 0 0 0 0.922119,-3.58436 m 1.873983,-4.59573 c 1.33856,1.48729 1.33856,3.12331 -0.133856,3.45051 a 3.0935592,3.0935592 0 0 1 -2.647373,-0.92211 z m -4.848559,2.18632 -1.011355,-1.99296 3.509999,-0.41645 z"
     id="path72"
     inkscape:connector-curvature="0"
     style="stroke-width:1" />
  <path
     d="M 83.709145,1.1729483e-7 A 83.704575,83.704575 0 0 0 0.24253605,77.338982 60.830084,60.830084 0 0 0 0.00456998,83.511227 v 0.773391 A 83.704575,83.704575 0 1 0 83.709145,1.1729483e-7 M 4.4515616,104.88356 v -0.0892 C 4.1838497,103.76813 3.9310107,102.72703 3.6930445,101.7008 a 0.11898305,0.11898305 0 0 1 0.1636017,0 4.8188135,4.8188135 0 0 0 2.6027542,0.56517 c 0.8477543,-0.11898 0.7585169,-0.43131 0.6097881,-1.16008 C 6.9948245,100.6597 4.7638921,99.975548 4.5556717,99.618598 A 7.243093,7.243093 0 0 1 3.7376633,97.164531 L 3.529443,96.12343 A 6.5886863,6.5886863 0 0 0 2.3396124,93.803261 C 2.2652489,93.208345 2.1908831,92.61343 2.1313917,92.018516 A 7.4364405,7.4364405 0 0 0 3.1130019,91.73593 C 3.8863917,91.378982 4.5110527,90.873304 4.3771966,90.159407 A 0.78826271,0.78826271 0 0 0 4.1094851,89.802456 l -0.2379659,0.148723 -0.7882628,0.118984 c 0,-0.267713 -0.1189826,-0.416443 -0.1636017,-0.684153 -0.133855,-0.624662 -0.743644,-1.576525 -0.1487294,-1.933476 a 22.755507,22.755507 0 0 0 1.0411017,-3.212541 4.3577542,4.3577542 0 0 1 1.2344491,1.859111 c 0.1189826,0.401567 0.386695,0.847753 0.4610593,1.249319 0.1636017,0.81801 -0.9964829,1.189832 -0.8328811,2.007841 0.2082207,1.055973 2.0524574,0.847753 2.2755507,1.888854 0.2230931,1.041102 -0.3569493,1.769875 -1.026229,2.721738 -0.223093,0.312332 -0.6395337,0.446186 -0.5651695,0.81801 0.3866951,1.948347 3.8520764,2.156566 4.2387714,4.104915 a 3.5992373,3.5992373 0 0 1 0,1.903729 l -1.4129239,0.17848 a 2.364788,2.364788 0 0 0 1.2641949,1.79962 c 0.7733901,0.37183 0.9072461,0.98161 1.0559751,1.74013 0.07436,0.40157 -0.118983,0.75852 0,1.16009 0.193346,0.95186 1.18983,1.29393 1.487288,2.32016 a 3.376144,3.376144 0 0 1 0.252838,1.23445 C 11.218722,108.39356 8.0359259,108.9736 6.2065615,107.32271 A 5.4880932,5.4880932 0 0 1 4.4366886,104.9133 M 10.698172,92.86627 a 1.9334746,1.9334746 0 0 0 -1.2344496,2.320169 c -0.1933463,0 -0.371822,0.624662 -0.5651695,0.669281 C 8.7052066,95.900345 7.8574513,94.680761 8.259019,94.36843 8.660587,94.056101 8.8539343,93.654531 8.8093158,93.446313 8.645714,92.643177 7.9764344,93.252964 7.8128326,92.449828 L 7.5302479,91.051779 C 7.4112651,90.471736 6.7419853,90.33788 6.6230022,89.757837 c 0,-0.237965 0.1189826,-0.386695 0,-0.62466 C 6.5040195,88.895212 6.4147815,88.746482 6.3552903,88.493642 6.295799,88.240804 6.1024514,87.49716 6.0280868,87.214575 a 3.3166525,3.3166525 0 0 1 0.9518646,0.743645 c 0.1784739,0.41644 0.6246609,0.446187 1.0411017,0.669279 0.7287711,0.401567 0.8923728,0.951864 1.4872879,1.561653 0.252839,0.31233 0.832881,0.267711 0.907246,0.654406 0.133855,0.669279 -0.208221,1.279067 0.282585,2.022712 m 1.799618,0.104105 c -0.10411,-0.520547 -0.580042,-0.69902 -0.684152,-1.219571 -0.252839,-1.308813 1.353432,-2.587882 2.156567,-3.747967 0.267713,-0.401566 0.639534,0.356951 1.055975,0 0.416441,-0.356947 1.204703,-2.097076 1.65089,-2.424279 0.490805,0.594916 0.193348,1.487288 0.609788,2.097076 a 8.3436863,8.3436863 0 0 1 1.234449,1.963221 c 0.461059,1.219575 1.487289,0.966738 1.710381,2.245805 0.193349,0.996482 -1.18983,1.487287 -0.996483,2.454025 0.07436,0.342076 0.66928,0 1.026229,0.208226 a 2.2755507,2.2755507 0 0 1 1.487289,1.710381 1.9334746,1.9334746 0 0 1 -0.505678,1.903728 c -0.535424,0.580042 -1.487289,0.847754 -1.264195,1.591398 a 2.4242796,2.4242796 0 0 1 -0.713899,2.379662 c -0.386695,0.41644 -0.758517,0.47593 -0.639533,1.02623 0,0.11898 0.148728,0.14872 0.163601,0.28258 0.312331,1.48729 -0.936992,2.43915 -2.335042,3.40589 -1.055975,0.72877 -0.594916,1.65089 -1.606272,2.4689 l -0.788262,0.14872 -0.133855,-0.69903 c -0.312332,-1.59139 -2.097078,-2.00783 -2.409408,-3.6141 -0.10411,-0.53542 0.252839,-0.86263 0.148729,-1.39805 -0.10411,-0.53542 -0.535424,-0.53542 -0.609788,-0.95187 -0.223093,-1.11546 0.684152,-1.78474 0.461059,-2.974572 -0.223093,-1.189831 -0.98161,-1.23445 -1.160085,-2.156567 -0.178474,-0.922118 0.550297,-1.23445 0.386695,-1.992967 -0.07436,-0.401567 -0.356949,-0.550297 -0.416441,-0.936991 -0.193346,-0.907245 1.160085,-1.219576 2.21606,-1.487289 0,-0.163603 0,-0.297456 0,-0.461057 M 165.50999,88.746482 c -0.28258,1.08572 -1.10059,3.391017 -0.4908,4.863433 0,0.133863 0.10415,0.26771 0.16359,0.401567 -0.2677,2.111948 -0.5949,4.179279 -1.02621,6.231738 a 18.338263,18.338263 0 0 0 -0.71391,1.9186 c -0.26771,1.07085 -2.97457,4.11979 -3.62898,5.48809 l -0.83288,2.08221 -2.97458,0.22309 c 0,0 1.30882,-1.81449 0.98162,-2.88534 -0.32721,-1.07084 -0.72877,-4.2239 0.17847,-5.36911 0.90725,-1.14521 0.55031,-1.48729 0.49082,-2.468897 -0.0595,-0.98161 -0.49082,-3.286907 1.24932,-4.461864 1.74012,-1.174958 -0.31233,-3.688476 0,-4.461865 0.31232,-0.77339 3.37613,-2.409407 3.56949,-3.19767 0.19334,-0.788262 1.65088,-5.190636 2.21605,-4.670084 a 34.49021,34.49021 0 0 1 0.72877,6.350721 m -16.71711,15.170339 c -0.56517,-1.13034 0.19334,-2.34991 0.4908,-3.19767 a 3.4653813,3.4653813 0 0 0 0.23797,-3.078687 c -0.59492,-1.487287 0,-2.111949 0.50567,-3.063813 a 73.695125,73.695125 0 0 1 6.24662,-6.648177 c 0.72877,-0.431314 -0.34207,1.487287 0.77338,3.212541 a 5.6368219,5.6368219 0 0 1 0.3867,4.461865 c -0.20822,0.862628 -1.13034,2.974576 -0.77338,3.703346 a 5.1757626,5.1757626 0 0 1 -0.60979,3.316655 c -0.43132,0.80313 -2.73662,3.91157 -2.82586,4.26852 -0.0893,0.35694 -0.40156,2.81097 -0.40156,2.81097 l -2.42428,-0.31233 0.52055,-1.14521 c 0.16361,-1.48729 -1.57652,-3.25716 -2.12682,-4.46187 m 15.21496,-37.271437 c 1.16008,6.722544 1.69551,10.158177 0.40157,12.790677 -1.29395,2.6325 -6.32098,6.172246 -7.03488,6.60356 -0.71389,0.431314 -0.31233,-0.401567 0.59492,-1.487287 0.90724,-1.085721 4.03054,-5.72606 3.94131,-6.558941 -0.0893,-0.832881 -0.40157,-0.41644 -1.18983,0.609787 -0.78826,1.02623 -3.98594,8.700636 -8.19496,11.600849 a 13.177373,13.177373 0 0 0 -1.38318,1.784743 c -0.38669,0.713899 -0.22309,-0.669278 0,-1.621142 0.2231,-0.951866 0,-6.187118 -0.14872,-10.143305 A 69.619957,69.619957 0 0 0 146.9784,60.993687 65.440678,65.440678 0 0 0 126.84052,32.274153 52.218687,52.218687 0 0 0 121.35243,28.050255 c -3.43564,-2.305297 -7.8975,-5.101399 -9.38479,-5.012163 0,0 -0.46106,0.193345 0.29746,0.699026 0.75851,0.505678 5.51784,3.063814 8.78987,5.41373 a 61.11267,61.11267 0 0 1 9.38479,8.031354 c 6.66305,6.871273 8.73038,10.158179 13.68305,20.360976 -0.14873,-0.133864 -1.04111,-1.264195 -1.20471,-0.922119 a 26.607584,26.607584 0 0 1 2.55814,4.23877 c 0.20823,0.669279 0.74364,2.186314 0.937,2.721739 a 18.397754,18.397754 0 0 1 0.41643,2.260676 c 0.2231,1.814492 0.44619,3.896695 -0.34207,1.918602 a 15.780127,15.780127 0 0 0 -3.28692,-3.971058 c 0,0 -1.14521,-0.936991 -1.38316,-0.535425 -0.23797,0.401567 2.26066,1.636018 2.85558,2.662245 0.59492,1.02623 1.97809,3.167925 1.18983,3.167925 a 12.091652,12.091652 0 0 0 -2.57301,-2.974576 7.4364405,7.4364405 0 0 0 -3.85207,-1.576527 1.4872881,1.4872881 0 0 0 -0.84775,0.342076 c -0.28258,0.297459 -0.68416,0.25284 -0.72877,-0.892371 -0.0446,-1.145213 1.48728,-2.974576 1.48728,-4.045425 0,0 0,-0.892372 0.43131,-0.847753 0.43133,0.04463 1.63602,0 1.93348,0.104105 0.29746,0.104104 0,-0.446186 -0.99649,-0.490805 -0.99648,-0.04463 -1.32367,0 -0.93699,-0.401568 a 1.7847458,1.7847458 0 0 1 1.24933,-0.639534 c 0.63954,0 -0.31234,-0.505678 -0.84775,-0.252841 -0.53543,0.252841 -0.40158,0.699027 -1.18984,0 a 1.6360169,1.6360169 0 0 1 -0.14872,-2.513517 c 0.78826,-0.550295 1.27907,-0.297456 1.18983,-0.550295 -0.0893,-0.252839 -0.47594,-0.148724 -0.96674,-0.08924 0,0 -1.72525,0.699026 -1.57652,2.141695 0.14873,1.442668 0.95187,2.587881 0.69902,3.956186 -0.25283,1.368304 -1.21957,2.677119 -1.02623,3.643855 a 4.0454237,4.0454237 0 0 0 2.1417,2.810976 c 1.48729,1.041102 1.33856,0.594916 1.88886,2.974575 0.5503,2.37966 1.39805,8.418052 1.48729,9.816101 a 6.4250846,6.4250846 0 0 1 -0.44619,4.461864 28.868263,28.868263 0 0 1 -3.49513,3.956188 c -0.47593,0.41644 -0.5503,0.936992 0,0.832881 0.5503,-0.104104 2.78123,-2.602755 4.46187,-3.747966 0,0 0.92211,-0.490806 0.77338,-2.141696 a 42.759534,42.759534 0 0 0 -0.66928,-8.462668 c 0,0 -1.32368,-7.436442 -1.62114,-8.15034 0,0 -0.37183,-0.639533 0.44618,-0.148723 0.81802,0.490805 2.48378,1.740126 2.69199,2.781228 a 32.898813,32.898813 0 0 1 1.68064,7.897499 62.57021,62.57021 0 0 1 0.40157,7.704154 l 0.72877,0.639535 c 0.37183,0.282584 1.68064,1.293938 1.48729,1.487287 -0.19335,0.193344 -0.77339,-0.07436 -0.96673,0 -0.19335,0.07436 0.2677,0.297456 0.78826,0.818008 a 7.02,7.02 0 0 1 1.01135,1.189829 v 0.996485 l -0.19334,-0.104104 a 11.690084,11.690084 0 0 0 -1.48732,-0.996483 c -0.25284,0 0.29746,0.624663 0.84775,1.145212 a 3.9710591,3.9710591 0 0 1 0.81801,0.862627 l -0.10416,0.654408 c -0.52055,0.475932 -1.18984,-0.297457 -1.5914,-0.594916 -0.40157,-0.297457 -0.62465,-0.178484 -0.14872,0.371823 0.47592,0.550296 1.48729,1.145212 0.47592,1.293941 a 6.9605084,6.9605084 0 0 1 -4.01566,-0.966738 c 0,0 -0.47594,-0.208225 -1.36832,0.416442 a 59.714618,59.714618 0 0 0 -4.74444,4.625465 c -0.26771,0.342075 -1.11547,1.487288 -0.19335,1.085721 0.92212,-0.401569 3.25716,-3.227416 4.16441,-3.227416 0.90724,0 1.10059,0.847753 0.81801,4.551102 0,0 -0.1636,0.639534 0.10415,0.639534 0.26772,0 0.81801,-2.558136 1.29395,-6.8564 0,0 2.3499,0.743645 2.60275,1.591398 0.25283,0.847755 -0.23797,4.461866 -1.21959,9.384789 -0.90724,4.46187 -1.30881,7.00513 -3.53974,7.28772 a 1.2344491,1.2344491 0 0 1 -1.17495,-0.81801 c -0.2231,-0.81801 0.92211,-3.92645 1.02622,-4.46187 0.10415,-0.53542 -0.35694,-0.44619 -0.47592,0 a 29.582161,29.582161 0 0 0 -1.14522,4.46187 3.9859321,3.9859321 0 0 0 0.63953,1.48728 4.8485591,4.8485591 0 0 1 0.10416,3.74797 59.327922,59.327922 0 0 1 -11.0208,14.63491 61.395254,61.395254 0 0 1 -15.95861,12.1214 c -2.49864,1.39805 -4.09004,2.12682 -6.55894,3.30178 -1.74013,0.89237 -2.0822,0.37182 -1.94835,1.2642 0.13387,0.89236 3.76284,-0.90725 5.11627,-1.57653 1.35344,-0.66929 3.27204,-1.65089 5.29475,-2.84072 a 63.670803,63.670803 0 0 0 14.7539,-11.02081 60.220294,60.220294 0 0 0 13.10301,-17.84745 l 1.69551,-2.37966 a 7.7190253,7.7190253 0 0 1 2.87047,-0.89237 c 1.84423,0 8.92372,1.99296 12.37423,-0.52056 0,0 0.1636,0 0.56516,-0.77339 A 82.053685,82.053685 0 0 1 5.7157564,109.34542 c 3.6736017,1.9781 11.0951696,0.7139 12.8650426,0.62466 1.769873,-0.0892 3.956186,2.66225 3.956186,2.66225 8.135466,18.24902 26.964532,29.31444 30.801737,31.12894 5.502966,2.6325 15.22983,6.15738 15.616525,5.29474 0.386695,-0.86262 -2.974576,-1.60627 -8.343686,-3.56949 -2.647373,-0.9816 -6.91589,-2.88533 -7.79339,-3.37614 A 65.544788,65.544788 0 0 1 37.409867,130.88135 64.53343,64.53343 0 0 1 21.332281,105.06203 c -0.104117,-0.68415 -0.654406,-1.30881 -0.699025,-1.87398 a 4.4618643,4.4618643 0 0 1 0.580041,-0.81801 c 0.624663,-0.77339 0.446188,-1.48729 0.922121,-2.26068 0.922119,-1.487285 1.888854,-2.60275 1.487287,-4.328005 a 2.0524576,2.0524576 0 0 0 -0.327203,-1.041102 c -0.41644,-0.535425 -1.398051,-0.401568 -1.487289,-1.041103 -0.193344,-0.966735 0.267713,-1.576525 0.08924,-2.558134 -0.178485,-0.981609 -1.323687,-1.174958 -2.037585,-1.888856 -0.951865,-0.936992 -0.743645,-1.353433 -1.293941,-2.498643 -0.163602,-0.356951 0,-1.264197 -0.312331,-1.48729 0,-0.639533 -0.327203,-0.639533 -0.342076,-1.487288 A 65.604279,65.604279 0 0 1 35.714359,38.342287 l 1.963218,-1.978093 0.475933,-0.431313 c 8.25445,-7.882626 20.732796,-15.214958 39.428007,-17.445889 0,0 2.00784,0 2.022712,-0.818009 0.01492,-0.818009 -0.490805,-1.264195 -1.992965,-1.041101 0,0 -28.674915,-0.118984 -48.842542,28.719533 A 70.051271,70.051271 0 0 0 17.361223,75.36089 c -0.35695,2.528389 -0.758518,5.949151 -0.862627,7.436438 a 5.2203812,5.2203812 0 0 1 -0.981611,2.528391 c -0.535424,0.594915 -0.371822,1.48729 -1.725254,1.100594 -1.026229,-0.267712 -1.487288,1.487288 -2.037585,2.216059 C 8.5564769,85.191863 6.280926,80.209447 5.6265191,79.406314 4.9721124,78.603177 4.4664345,78.008261 4.4218157,78.841142 c -0.044619,0.832881 3.3315254,5.800424 4.2685169,6.856399 0.9369916,1.055976 1.3980514,1.844238 0.6544067,1.487287 -0.7436439,-0.356948 -5.101398,-3.495126 -6.5143218,-6.068133 -1.4129239,-2.57301 0,-11.600849 0.3718221,-12.939407 a 1.7103814,1.7103814 0 0 0 0,-0.565171 82.053685,82.053685 0 0 1 160.6271204,-1.145212 0.60978811,0.60978811 0 0 0 0,0.163604"
     id="path74"
     inkscape:connector-curvature="0"
     style="stroke-width:1" />
  <path
     d="m 61.816264,68.296271 c 0.996483,0 3.257161,0.104105 3.36127,-0.342076 0.104105,-0.446189 -0.8775,-0.490805 -3.212542,-0.728773 -2.335042,-0.237965 -2.126821,-1.338559 -1.829364,-2.468898 0.297459,-1.130337 2.617628,-6.752287 2.617628,-6.752287 A 69.396863,69.396863 0 0 1 68.048,48.515338 c 0.743645,-0.892373 5.949153,-8.165212 7.614915,-9.697118 a 8.9237288,8.9237288 0 0 1 5.339366,-1.769873 c 0.743643,0 2.022713,1.234449 2.513518,1.383177 a 27.827161,27.827161 0 0 0 3.46538,0 2.8109745,2.8109745 0 0 1 2.27555,1.279067 47.846059,47.846059 0 0 1 2.320171,4.699832 c 0.148723,0.654406 -0.297459,0.743645 -0.654408,0.446186 a 25.759831,25.759831 0 0 1 -1.680636,-3.063813 c -0.699025,-1.279068 -1.487287,-1.740126 -1.725253,-1.769873 -0.237968,-0.02975 0.297457,0.580044 0.594913,0.832881 a 34.207626,34.207626 0 0 1 1.814494,3.153052 c 0.208225,0.356948 0.342076,1.249322 -0.327204,1.338559 -0.66928,0.08924 -1.844237,-2.216059 -2.141693,-2.751483 -0.29746,-0.535425 -1.933478,-1.234449 -1.933478,-1.234449 -2.468898,-0.892374 -2.364787,0 -3.792584,0.594914 a 5.0865254,5.0865254 0 0 1 -3.866948,0.148723 c -0.639534,-0.401567 -1.026228,-0.342075 -0.877499,0 a 2.8407203,2.8407203 0 0 0 1.963219,1.189831 34.296864,34.296864 0 0 0 5.398857,-1.08572 c 0.788262,-0.104105 2.721735,1.23445 2.721735,1.23445 a 7.629788,7.629788 0 0 0 -1.636015,0.193344 12.017288,12.017288 0 0 1 -4.357755,0.252839 4.5957202,4.5957202 0 0 0 -3.450509,1.070847 14.783644,14.783644 0 0 0 -3.316651,4.848561 c -0.639535,1.636015 -2.067332,6.380465 -2.230933,7.317456 -0.163603,0.936992 -1.918602,3.167925 -1.755,3.569492 0.163604,0.401569 1.041101,-0.743644 1.041101,-0.743644 a 14.620042,14.620042 0 0 1 5.235254,-4.298264 30.980212,30.980212 0 0 0 3.286906,-3.599235 36.24521,36.24521 0 0 1 6.187119,-6.261485 2.4837712,2.4837712 0 0 1 2.082203,-0.416439 c 1.487289,1.100592 1.918602,0.446186 2.216062,0.208224 0.297456,-0.237967 0.594915,0.252839 1.085718,0.401567 0.490805,0.148724 0.996485,-0.148722 1.38318,-0.148722 a 4.0008051,4.0008051 0 0 1 1.338558,0.699025 c 1.23445,0 0.342076,-1.293941 0.342076,-1.293941 A 20.926144,20.926144 0 0 1 91.547153,41.153265 8.522161,8.522161 0 0 0 88.17101,37.866359 c -0.892375,-0.446188 -2.974578,-0.104105 -4.194153,-0.252841 a 1.2047034,1.2047034 0 0 1 -0.936992,-1.725253 c 0.148724,-0.193344 0.446186,-0.639535 0.148724,-0.847755 -0.29746,-0.208226 -0.50568,-0.743643 -0.148724,-0.684151 0.356948,0.05948 1.487288,0 1.576526,-0.29746 0.08924,-0.297456 0,-0.342075 -0.550296,-0.342075 -0.550296,0 -1.576526,0 -1.621145,-0.401567 a 7.0794913,7.0794913 0 0 0 -0.237966,-0.936992 5.9491524,5.9491524 0 0 0 1.026228,-0.208224 0.50567796,0.50567796 0 0 0 -0.08924,-0.892373 4.3280083,4.3280083 0 0 1 -1.234451,0.342076 1.130339,1.130339 0 0 1 -0.996482,-1.041102 9.5781355,9.5781355 0 0 1 0.594915,-1.145212 14.158982,14.158982 0 0 0 0.951864,-5.041906 8.3585593,8.3585593 0 0 1 0.639535,-3.108433 c 0.446192,-0.788261 1.279073,-2.022709 1.279073,-2.022709 a 4.2090254,4.2090254 0 0 1 -2.513517,-2.022713 c -0.505678,-0.699025 -0.550297,0.193348 -0.550297,0.193348 a 2.6473728,2.6473728 0 0 0 1.680636,2.275551 11.19928,11.19928 0 0 0 -1.680636,6.127627 8.1800846,8.1800846 0 0 1 -1.323686,3.911568 2.0375847,2.0375847 0 0 0 -0.193345,1.725254 6.9902541,6.9902541 0 0 0 0.981611,1.041101 2.5581356,2.5581356 0 0 1 -1.487287,3.450508 17.520254,17.520254 0 0 0 -6.365596,4.551102 c -1.24932,1.487288 -6.782032,8.849363 -8.775,11.496737 a 27.946144,27.946144 0 0 0 -1.799617,2.825847 c -1.665764,3.123306 -4.461866,8.715509 -5.250128,10.143305 a 5.6814405,5.6814405 0 0 1 -5.175763,2.275552 c -1.829364,0 -11.452119,0 -12.299871,0.237966 -0.847754,0.237966 -8.611399,0 -7.436443,0.862627 0.267713,0.208225 28.660044,-0.104105 29.641653,0"
     id="path76"
     inkscape:connector-curvature="0"
     style="stroke-width:1" />
  <path
     d="m 101.95817,28.005636 a 55.877414,55.877414 0 0 1 -5.443473,-2.156567 c -1.27907,-0.699027 -2.126824,-0.951866 -2.617629,-1.204703 0,0 -0.446185,0.104104 0.446186,0.609787 0.892373,0.505678 4.238772,2.111948 4.997289,2.751483 0.758517,0.639534 1.784747,1.487287 1.576527,2.230933 -0.20823,0.743643 0,1.680633 0.78826,1.487287 0.78826,-0.193344 1.08572,-1.487287 1.0411,-2.409406 a 1.3385593,1.3385593 0 0 0 -0.78826,-1.293943"
     id="path78"
     inkscape:connector-curvature="0"
     style="stroke-width:1" />
  <path
     d="m 99.831348,25.283898 c 0.252842,-0.163604 -0.342077,-0.907245 -0.743643,-1.041102 a 8.2544491,8.2544491 0 0 1 -1.992968,-2.067329 3.376144,3.376144 0 0 0 -2.573008,-1.23445 5.2055086,5.2055086 0 0 1 -3.376143,-1.725254 L 90.000373,18.07055 c 0,0 -0.699025,-0.490804 -0.237965,0.35695 a 14.515931,14.515931 0 0 0 2.409408,2.573009 c 0.996482,0.639533 4.164403,2.617627 4.848557,2.974575 0.684153,0.35695 2.573009,1.48729 2.825849,1.293941"
     id="path80"
     inkscape:connector-curvature="0"
     style="stroke-width:1" />
  <path
     d="m 103.6983,25.700339 c 0.53542,-0.847755 -0.46106,-3.123305 -0.65441,-3.76284 -0.19335,-0.639532 -0.93699,-1.680635 -1.14521,-2.230931 -0.20823,-0.550297 -0.53543,-0.580043 -0.19335,0.550296 0,0 1.23445,2.082205 0.40157,2.528391 -0.83288,0.446186 -1.68063,0.08924 -2.468895,-0.907247 l -0.80314,-0.936991 c 0,0 -0.342076,-0.282584 -0.237965,0.297456 0,0 2.4689,3.272034 2.97457,3.956188 0.50568,0.684153 1.62115,1.338559 2.18632,0.505678"
     id="path82"
     inkscape:connector-curvature="0"
     style="stroke-width:1" />
  <path
     d="m 106.59851,26.042415 c 0,0 -0.38669,1.695508 0.34208,1.918602 a 15.274449,15.274449 0 0 0 3.61411,0.758517 c 0.50567,-0.104105 0.29745,-1.145212 0.19334,-1.293942 -0.1041,-0.148723 0,-0.639533 -1.38318,-1.145212 -1.38318,-0.505677 -2.66224,-1.130338 -2.76635,-0.237965"
     id="path84"
     inkscape:connector-curvature="0"
     style="stroke-width:1" />
  <path
     d="m 109.32025,30.593517 c 0,0 -2.08221,-0.699027 -2.17144,-0.163605 a 2.6919915,2.6919915 0 0 0 1.33855,2.379662 c 1.36831,0.639534 3.30178,1.487289 3.85208,1.234449 0.5503,-0.252838 -0.74364,-2.379659 -0.93699,-2.573006 a 5.0716524,5.0716524 0 0 0 -2.0822,-0.8775"
     id="path86"
     inkscape:connector-curvature="0"
     style="stroke-width:1" />
  <path
     d="m 104.0255,66.347922 c 0,0 -1.48729,-0.818008 -1.76987,-0.148723 -0.28259,0.669279 0.74364,1.383177 3.55462,1.338558 8.46267,-0.163604 6.05326,-9.637626 5.07165,-9.325296 0,0 2.97457,9.280678 -6.8564,8.135465"
     id="path88"
     inkscape:connector-curvature="0"
     style="stroke-width:1" />
  <path
     d="m 104.84351,74.513135 c -0.59492,-0.08924 -0.96674,0.133863 -0.89237,0.505676 0.0744,0.371824 1.71038,0.07436 1.71038,0.07436 a 9.8161016,9.8161016 0 0 1 6.08301,1.784744 1.6508898,1.6508898 0 0 0 1.62114,0.446189 c 0.52055,-1.264198 -1.32369,-1.933477 -1.32369,-1.933477 -2.15656,-1.174956 -7.19847,-0.8775 -7.19847,-0.8775"
     id="path90"
     inkscape:connector-curvature="0"
     style="stroke-width:1" />
  <path
     d="m 117.91677,58.212457 c -0.1041,0.505678 2.27555,0.505678 2.27555,0.505678 a 20.49483,20.49483 0 0 0 7.31746,-1.888856 c 1.27906,-1.383179 0.38669,-0.788263 0.38669,-0.788263 a 20.241991,20.241991 0 0 1 -6.4697,1.963221 c -1.57652,0.193343 -3.46538,-0.297458 -3.55462,0.193343"
     id="path92"
     inkscape:connector-curvature="0"
     style="stroke-width:1" />
  <path
     d="m 128.84835,107.08474 c -0.78828,0.3867 0.10415,0.49081 0.10415,0.49081 0,0 1.66578,-0.29746 2.66225,-0.40157 0.99648,-0.1041 0.69903,-1.08572 0.19335,-0.98161 -0.50568,0.10411 -2.97458,0.89237 -2.97458,0.89237"
     id="path94"
     inkscape:connector-curvature="0"
     style="stroke-width:1" />
  <path
     d="m 99.504144,79.019617 c 0.297459,-0.148723 -0.07436,-0.951864 0.520556,-0.951864 0.59491,0 1.48728,-0.223093 0.66927,-0.818009 -0.31233,-0.208224 -1.189826,0.148724 -1.487283,0.520552 -0.297458,0.371821 -0.520552,0.594916 -0.208224,0.818009 0.31233,0.223093 0.208224,0.580041 0.505676,0.431312"
     id="path96"
     inkscape:connector-curvature="0"
     style="stroke-width:1" />
  <path
     d="m 73.104781,87.125337 c 1.041102,-2.766355 4.119788,-0.550296 4.119788,-0.550296 a 40.15678,40.15678 0 0 1 5.235254,7.213348 c 0.594914,1.189831 0.862627,1.026229 1.487287,1.026229 0.624662,0 15.690891,-0.431314 17.96644,-0.550297 0.8775,0 0.37182,-0.684153 0,-0.684153 -0.37182,0 -14.709278,0.431314 -16.523769,0.431314 -1.487287,0 -1.710381,-0.535424 -1.710381,-0.535424 -3.108433,-4.461864 -4.030552,-6.29123 -5.949153,-7.64466 -1.487288,-1.02623 -4.17928,-1.041102 -4.803941,0.803133 0,0.178485 0,0.669282 0,0.490806"
     id="path98"
     inkscape:connector-curvature="0"
     style="stroke-width:1" />
  <path
     d="m 70.710247,114.37246 c -2.647372,-3.09356 -7.689279,-9.90534 -8.194957,-12.06191 -0.505679,-2.15657 -1.368305,-4.95267 0.609788,-7.629789 a 11.452118,11.452118 0 0 0 0.8775,-0.951864 c 0,-0.104104 0,-0.46106 -0.342078,-0.371822 a 1.755,1.755 0 0 0 -0.550296,0.282584 9.399661,9.399661 0 0 0 -2.751482,5.785552 c 0,0 -0.446188,2.885339 2.528389,6.826649 2.974577,3.94132 3.480255,6.3656 1.636017,5.29475 a 10.098686,10.098686 0 0 1 -4.744448,-4.29826 5.3393643,5.3393643 0 0 0 -0.475933,-0.84776 c -0.178485,-0.20822 -0.386695,-0.34207 -0.35695,0.10411 a 7.1538558,7.1538558 0 0 0 1.100596,2.60275 10.708474,10.708474 0 0 0 3.10843,2.97458 c 2.721738,1.72525 8.046229,5.50296 11.005932,6.4697 a 20.688177,20.688177 0 0 0 7.436442,1.29394 c 5.726057,-0.31233 5.949151,-7.28771 5.592203,-7.25797 -0.35695,0.0298 -0.50568,5.47323 -4.238773,6.09789 a 11.020805,11.020805 0 0 1 -4.922922,-0.13387 11.749576,11.749576 0 0 1 -7.317458,-4.17928"
     id="path100"
     inkscape:connector-curvature="0"
     style="stroke-width:1" />
  <path
     d="m 90.625034,142.77966 c -0.52055,-0.29746 -1.041102,0.22309 0.446186,0.58004 a 2.7812287,2.7812287 0 0 0 2.974578,-0.72877 c 0.297456,-0.52055 0.297456,-1.2642 -1.041101,-0.29746 a 2.3945339,2.3945339 0 0 1 -2.364789,0.44619"
     id="path102"
     inkscape:connector-curvature="0"
     style="stroke-width:1" />
  <path
     d="m 28.679484,130.50953 a 2.7068644,2.7068644 0 0 1 1.487288,2.03759 c 0,0 0,0.34207 0.282587,0.29745 a 4.9229237,4.9229237 0 0 0 1.011354,-1.08572 0.52055086,0.52055086 0 0 0 0,-0.69903 c -0.758517,-0.86262 -2.617627,-2.97457 -3.272035,-3.9413 -0.148722,-0.20823 -0.208224,-0.58005 -0.743641,-0.43132 -0.148724,0 -1.338562,0.56518 -1.487289,0.68415 -0.148722,0.11903 -0.08924,0.29746 0.118984,0.37183 0.208225,0.0744 1.680636,0.63953 1.606271,1.48728 l -2.111948,1.69551 c 0,0 -0.535425,0.25284 -1.085722,-0.44619 -0.550295,-0.69902 -1.844238,-2.51351 -1.844238,-2.51351 a 0.3866949,0.3866949 0 0 0 -0.565168,-0.0893 3.9561864,3.9561864 0 0 1 -2.037584,0.96674 1.9780931,1.9780931 0 0 1 -1.769873,-2.33505 c 0.223092,-1.02623 1.918601,-2.33504 3.19767,-2.97458 a 2.2606779,2.2606779 0 0 1 1.755,-0.0892 2.111949,2.111949 0 0 1 1.383176,2.0822 2.126822,2.126822 0 0 1 -0.371822,1.13034 c 0,0 -0.104105,0.0892 0.252839,0.26771 l 1.487288,-1.17492 c 0.133863,-0.10411 0.104104,-0.2231 0,-0.34208 -0.104105,-0.11898 -0.312332,-0.0892 -0.297457,-0.38669 0,0 0,-2.3053 -1.769875,-2.8556 a 6.1573727,6.1573727 0 0 0 -6.276355,2.48377 6.5291948,6.5291948 0 0 0 -0.654407,1.29394 3.6141101,3.6141101 0 0 0 0.431315,3.25717 3.6884745,3.6884745 0 0 0 4.684955,0.69902 l 1.487289,1.88886 a 0.80313558,0.80313558 0 0 1 0,0.96674 3.7479661,3.7479661 0 0 1 -1.487289,0.95186 L 21.3769,133.6179 c -0.133864,-0.0446 -0.133864,0.23797 -0.133864,0.23797 a 26.771185,26.771185 0 0 1 1.621143,2.12682 c 0.193345,0.29746 0.461061,0 0.401569,-0.34209 a 0.75851695,0.75851695 0 0 1 0.237966,-0.71389 l 5.294747,-4.46187"
     id="path104"
     inkscape:connector-curvature="0"
     style="stroke-width:1" />
  <path
     d="m 48.296814,143.18123 c 0.267713,-0.17847 0.133863,-0.34208 0,-0.41645 -0.535424,-0.34207 -1.576525,-1.08572 -1.784744,-1.23444 -0.208225,-0.14873 -0.490805,-0.0893 -0.386694,0.13387 a 1.3980508,1.3980508 0 0 1 0.07436,0.41643 c 0,0.4908 -0.490805,0.9816 -0.490805,0.9816 l -4.357755,3.85207 c 0,0 1.323689,-4.86342 1.665763,-6.64816 a 1.0262288,1.0262288 0 0 0 -0.371822,-1.14522 c -0.505677,-0.43131 -1.189831,-1.13034 -1.487287,-1.14521 -0.297457,-0.0149 -0.178465,0.37182 -0.178465,0.37182 0.535423,0.90724 0.297458,1.57652 0.07436,2.97458 -0.133863,0.8775 -1.487289,6.6928 -1.888856,8.3883 a 0.44618643,0.44618643 0 0 0 0.639533,0.5503 c 0.193345,-0.14872 7.436442,-6.38047 7.436442,-6.38047 a 3.9710591,3.9710591 0 0 1 1.08572,-0.6544"
     id="path106"
     inkscape:connector-curvature="0"
     style="stroke-width:1" />
  <path
     d="m 50.39389,145.48652 a 0.86262712,0.86262712 0 0 1 0.966738,-0.53541 c 0.08924,0 0.282584,-0.23797 0.08924,-0.37184 -0.193344,-0.13386 -1.487287,-0.77338 -1.888857,-1.05597 -0.401567,-0.28258 -0.490804,0 -0.461057,0.0893 a 0.89237288,0.89237288 0 0 1 0,0.937 l -4.015678,7.58516 c 0,0 -0.401569,0.72877 -0.966738,0.83288 -0.08924,0 -0.297457,0 -0.297457,0.10416 0,0.10416 0,0.14872 0.237965,0.31233 0.237965,0.16359 1.90373,1.01135 2.111948,1.14521 0.208226,0.13386 0.356951,-0.0744 0.193345,-0.28259 a 1.4872881,1.4872881 0 0 1 0.133863,-1.2047 c 0.118984,-0.25284 3.852078,-7.55542 3.852078,-7.55542"
     id="path108"
     inkscape:connector-curvature="0"
     style="stroke-width:1" />
  <path
     d="m 71.81084,152.16445 c -0.818009,-0.31233 -1.293942,0.92211 -1.293942,0.92211 l -2.974575,5.94916 -1.710381,-3.86695 c 0,0 -0.223094,-0.49081 -0.446186,-0.56518 -0.223093,-0.0744 -0.550297,0.0893 -0.56517,0.37183 a 6.4399576,6.4399576 0 0 0 0.461059,1.14522 c 0.66928,1.68063 2.111951,5.80041 2.156567,5.94914 a 0.31233051,0.31233051 0 0 0 0.282584,0.26772 c 0.118984,0 0.312332,-0.14872 0.431314,-0.40157 0.788265,-1.5914 3.614111,-7.43644 3.971061,-8.2247 0.356947,-0.78827 0.446187,-1.21958 -0.386694,-1.48729"
     id="path110"
     inkscape:connector-curvature="0"
     style="stroke-width:1" />
  <path
     d="m 116.34025,146.85482 c 0,-0.38668 -0.74365,-0.44617 0,-0.95186 a 1.0411017,1.0411017 0 0 1 1.39805,0.11904 c 0.50567,0.84775 1.48729,2.7961 1.48729,2.7961 a 7.0051271,7.0051271 0 0 0 -0.78827,0.29746 c -0.17848,0.0893 -0.46106,0.43131 -0.43131,0.62466 a 0.9369915,0.9369915 0 0 0 0.50568,0.80313 0.81800846,0.81800846 0 0 0 0.69902,0 6.1424999,6.1424999 0 0 0 0.65441,-0.46106 l 1.38318,2.1417 a 4.7295762,4.7295762 0 0 1 -2.17144,1.16008 c -0.47594,0 -0.47594,0.32721 -0.28259,0.4908 0.19335,0.16361 0.60979,0.71391 0.84776,1.01137 0.23796,0.29746 0.20822,0.11903 0.38669,0 0.84775,-0.40157 3.49513,-1.8145 3.6736,-1.94835 0.17849,-0.13387 0,-0.23796 0,-0.23796 a 6.2614829,6.2614829 0 0 1 -0.8775,-0.96674 56.412838,56.412838 0 0 1 -3.71822,-6.3656 6.7225422,6.7225422 0 0 1 1.79962,-1.02623 0.13385593,0.13385593 0 0 0 0,-0.23796 c -0.20822,-0.25284 -0.62466,-0.72878 -0.81801,-0.98161 -0.19334,-0.25284 -0.8775,0 -0.8775,0 -0.52055,0.31232 -2.6325,1.5914 -3.59924,2.06732 a 2.2160593,2.2160593 0 0 0 -0.78826,0.68416 1.0708474,1.0708474 0 0 0 0.0892,0.90725 c 0.47593,0.95185 1.30882,0.55029 1.27907,0.0893"
     id="path112"
     inkscape:connector-curvature="0"
     style="stroke-width:1" />
  <path
     d="m 123.98491,145.33779 c 2.4094,0.37183 3.46537,0.93699 3.59924,2.29043 0.13386,1.35343 -0.3867,1.57652 -0.84776,1.71037 -0.46106,0.13388 -0.60979,0 -0.0892,0.86264 l 0.35695,0.58004 c 0,0 0.38669,0.77339 0.62466,0 0.10416,-0.34208 1.76987,-1.21958 1.69551,-2.97458 a 3.361271,3.361271 0 0 0 -2.32017,-3.16792 c -0.95186,-0.23797 -3.56949,0 -4.0008,-1.72526 a 0.89237288,0.89237288 0 0 1 0.50567,-1.02623 1.0559746,1.0559746 0 0 1 0.56517,0 c 0,0 0.2231,0 0,-0.28258 -0.22309,-0.28258 -0.58004,-0.65441 -0.77339,-0.90724 -0.19334,-0.25284 -0.17846,-0.14872 -0.34207,0 a 4.015678,4.015678 0 0 0 -1.48729,2.36478 c 0,0.84776 0,1.82937 2.49864,2.18631"
     id="path114"
     inkscape:connector-curvature="0"
     style="stroke-width:1" />
  <path
     d="m 125.20448,142.19962 0.14873,0.20822 c 0.1041,0.11904 0.23796,0.17847 0.29745,0 a 5.7111864,5.7111864 0 0 1 1.48729,-1.91861 61.543982,61.543982 0 0 1 4.35776,4.90807 c 0.74364,1.07084 0.78826,1.13033 0.68415,1.48728 -0.10416,0.35695 0,0.32721 0.22309,0.20822 0.2231,-0.11903 1.57653,-1.27906 1.57653,-1.27906 0,0 0.28258,-0.26771 0,-0.28259 -0.28259,-0.0149 -0.34208,0 -1.36831,-0.937 -1.02623,-0.93699 -4.46186,-5.04189 -4.46186,-5.04189 a 3.4207626,3.4207626 0 0 1 2.2458,-0.96674 0.16360168,0.16360168 0 0 0 0.20822,-0.13387 c 0,0 0,-0.2231 -0.16359,-0.31233 a 9.2658049,9.2658049 0 0 0 -0.81801,-0.6544 c -0.34209,-0.25285 -0.75852,-0.59492 -1.27908,-0.14873 l -3.55461,2.97458 c 0,0 -0.31233,0.19334 0,0.89237 0.14872,0.3867 0.47593,1.07084 0.47593,1.07084"
     id="path116"
     inkscape:connector-curvature="0"
     style="stroke-width:1" />
  <path
     d="m 129.81507,136.8305 a 9.9648304,9.9648304 0 0 1 2.18632,1.02623 c 0.32721,0.20823 6.72254,3.91157 6.72254,3.91157 0,0 0.62467,0.37183 0.71391,-0.17846 a 60.279789,60.279789 0 0 0 -3.67361,-7.00512 13.534322,13.534322 0 0 1 -1.16008,-2.51352 c 0,-0.3867 0,-0.58004 -0.52055,-0.0893 -0.52056,0.49082 -1.16009,0.99649 -1.30882,1.18984 -0.14872,0.19334 0,0.31233 0.25284,0.28258 0.25284,-0.0298 0.47593,-0.16361 1.05598,0.93699 l 2.37965,4.56598 c 0,0 0.19334,0.34207 -0.62465,-0.16361 -0.40158,-0.25283 -4.06031,-2.34991 -4.46187,-2.67711 -0.40157,-0.32721 -0.32721,-1.02623 -0.74365,-0.75852 l -1.05596,0.98161 c 0,0 -0.25285,0.3272 0.20822,0.44619"
     id="path118"
     inkscape:connector-curvature="0"
     style="stroke-width:1" />
  <path
     d="m 139.94351,125.0958 a 4.1049153,4.1049153 0 0 1 1.04111,0.47594 c 0.34207,0.26771 4.77418,2.97457 6.20199,4.2239 a 2.9745763,2.9745763 0 0 1 0.84775,1.07084 c 0,0.0893 0.0893,0.41644 0.34207,0.23797 l 1.02623,-1.48729 c 0.17848,-0.25284 0.0893,-0.40157 -0.17849,-0.47593 a 4.4618643,4.4618643 0 0 1 -1.33855,-0.68416 l -6.17225,-4.1644 a 2.0970763,2.0970763 0 0 1 -0.66928,-0.74365 c 0,-0.1636 -0.23796,0 -0.23796,0 l -0.96674,1.32369 c 0,0 -0.16361,0.20823 0.0893,0.28259"
     id="path120"
     inkscape:connector-curvature="0"
     style="stroke-width:1" />
  <path
     d="m 141.78774,122.65665 c 0,0 0.31233,-0.23797 1.20471,0 l 9.01297,1.63602 a 1.0113559,1.0113559 0 0 0 0.6544,0 c 0.11903,0 0.13387,-0.20823 0,-0.43132 -0.13387,-0.22309 -4.46186,-4.31313 -4.46186,-4.31313 0,0 4.86343,0.43131 5.66656,0.46106 0.5503,0 0.53543,-0.32721 0.37183,-0.50568 l -4.34288,-4.83369 c 0,0 6.23173,0.44619 6.97538,0.3867 a 1.1600847,1.1600847 0 0 0 0.93699,-0.63954 c 0.20823,-0.50567 0.47593,-1.16008 0.52055,-1.23444 0.0446,-0.0744 -0.25284,-0.62467 -0.50568,-0.31233 -0.25283,0.31233 -1.2642,0.40156 -2.66224,0.28258 -1.39805,-0.11898 -6.64819,-0.83288 -7.16873,-0.8775 a 1.4872881,1.4872881 0 0 0 -1.48729,0.78826 c -0.13386,0.28259 -0.20822,0.5503 -0.31233,0.80314 -0.10415,0.25284 -0.10415,0.55029 0,0.66928 a 0.34207626,0.34207626 0 0 0 0.26772,0.1041 c 0.41643,0 0.17846,-0.75852 0.93698,0 0.75852,0.75852 3.06382,3.27204 3.06382,3.27204 l -5.13115,-0.68415 a 4.9080507,4.9080507 0 0 0 -0.62465,0 0.68415254,0.68415254 0 0 0 -0.40158,1.1006 c 0.40158,0.56517 4.29826,3.59923 4.29826,3.59923 l -4.86342,-0.44618 c 0,0 -0.84776,0 -0.8775,-0.66928 0,-0.16361 -0.14873,-0.17849 -0.26771,0 -0.11904,0.17848 -0.92213,1.39805 -1.13035,1.71038 -0.20822,0.31233 0.13386,0.41644 0.37183,0.17846"
     id="path122"
     inkscape:connector-curvature="0"
     style="stroke-width:1" />
  <path
     d="m 34.167577,43.93449 c 0.60979,-0.312329 3.257163,-2.974575 7.436442,-6.023515 2.141694,-1.48729 18.680339,-10.946441 31.099193,-11.898305 0.46106,0 1.888857,0 2.245805,-0.966737 0.163604,-0.461059 -0.312329,-0.847756 -0.743642,-0.966738 0,0 -13.028645,-0.490806 -32.854197,12.656821 0,0 -7.585168,5.577331 -8.046227,7.12411 0,0 -0.08924,0.535425 0.847754,0"
     id="path124"
     inkscape:connector-curvature="0"
     style="stroke-width:1" />
  <path
     d="m 61.399823,39.398262 c 2.662246,-0.803136 2.320171,-2.320171 1.041102,-2.320171 -5.755805,1.338562 -14.456441,4.982416 -25.283898,12.195765 0,0 -7.585168,5.577331 -8.04623,7.124109 0,0 -0.08924,0.535425 0.847756,0 0.609788,-0.297458 3.25716,-2.974575 7.436439,-5.949152 A 85.519066,85.519066 0 0 1 61.399823,39.398262"
     id="path126"
     inkscape:connector-curvature="0"
     style="stroke-width:1" />
  <path
     d="m 55.063977,50.894999 a 103.2178,103.2178 0 0 0 -14.486188,7.109238 c 0,0 -7.838009,5.22038 -8.37343,6.737415 0,0 -0.104105,0.520552 0.847752,0.118984 0.624661,-0.282584 3.391018,-2.825846 7.733899,-5.666567 a 94.740253,94.740253 0 0 1 15.631398,-6.901017 c 1.710382,-0.446187 2.245804,-2.840722 -1.39805,-1.383178"
     id="path128"
     inkscape:connector-curvature="0"
     style="stroke-width:1" />
  <path
     d="m 117.45571,121.95763 c -0.77339,-0.60979 -1.16008,-0.75852 -0.69902,-2.97458 0.46106,-2.21606 0.31233,-8.65602 -0.3867,-9.75661 -0.69902,-1.1006 -0.84775,-0.37182 -0.84775,-0.37182 a 26.265507,26.265507 0 0 1 0,9.29555 c 0,2.37966 -1.16009,1.84423 -1.16009,1.84423 a 15.661144,15.661144 0 0 1 -2.2458,-0.77338 c -1.48729,-0.62467 -1.32369,-2.70687 -1.32369,-2.70687 a 22.577034,22.577034 0 0 0 -1.16008,-8.4478 c -1.08572,-0.68415 -0.14873,2.57301 -0.14873,2.57301 0.69903,2.39454 -0.40156,7.43644 -0.0892,8.43293 0.31233,0.99648 2.7961,2.12682 5.35423,2.67711 0.46106,1.2642 4.46187,2.55814 7.77852,4.46187 a 0.69902541,0.69902541 0 0 0 0.96674,0 c -0.84776,-1.17496 -5.25014,-3.56949 -6.0384,-4.19415"
     id="path130"
     inkscape:connector-curvature="0"
     style="stroke-width:1" />
  <path
     d="m 83.129103,25.953177 c 0,0 1.100594,0.237967 1.219577,0.654407 0.118983,0.416441 0.594915,1.755 0.892371,1.48729 0.297459,-0.267713 0,-0.832884 0.342076,-0.951867 0.342078,-0.118984 0.996486,0.520552 1.293942,0.356951 0.297457,-0.163604 -0.699026,-1.055976 -1.219575,-1.487288 a 12.954279,12.954279 0 0 0 -2.097079,-1.041101 c -0.356948,0 0,0.461057 0,0.461057 a 0.53542373,0.53542373 0 0 0 -0.461058,0.505678"
     id="path132"
     inkscape:connector-curvature="0"
     style="stroke-width:1" />
  <path
     d="m 80.1694,153.36915 a 1.4872881,1.4872881 0 0 1 -0.669282,-0.11903 3.4802542,3.4802542 0 0 0 -1.487287,-0.68416 c -2.201186,-0.23797 -3.212542,1.32369 -2.825846,3.33153 0.386695,2.00784 0.252838,4.13466 -1.145213,4.98242 a 2.6622458,2.6622458 0 0 1 -2.290424,0.23796 1.8293644,1.8293644 0 0 1 -0.475933,-0.26771 c -0.223092,-0.16361 -0.282584,0 -0.282584,0.29746 0,0.29746 0,0.92211 0,1.21957 a 0.26771185,0.26771185 0 0 0 0.118984,0.28258 4.1049153,4.1049153 0 0 0 3.852077,-0.25283 4.4618643,4.4618643 0 0 0 2.097076,-3.76284 10.991059,10.991059 0 0 0 -0.237965,-1.48728 c -0.223095,-0.937 -0.446188,-2.20119 0.163604,-2.82586 0.609788,-0.62465 1.978093,0 2.141694,0.19334 a 4.2833897,4.2833897 0 0 1 0.371821,0.3867 0.16360168,0.16360168 0 0 0 0.297459,0 l 0.535425,-1.17496 a 0.14872881,0.14872881 0 0 0 -0.133864,-0.23797"
     id="path134"
     inkscape:connector-curvature="0"
     style="stroke-width:1" />
  <path
     d="m 13.925586,101.55203 c 0.08924,0.50568 0.996484,0.41644 1.100594,0.92212 0.193346,0.99648 -0.951865,1.48729 -0.743644,2.51352 0,0.29746 0.46106,0.34207 0.52055,0.6544 a 2.4242796,2.4242796 0 0 1 -0.297457,1.76988 l 0.237967,-0.0892 c 0.684152,-0.26771 0.565168,-0.89238 0.743643,-1.48729 0.178474,-0.59491 0.550297,-1.02623 0.446187,-1.69551 -0.104117,-0.66928 -0.31233,-1.16008 0.20822,-1.57652 0.520551,-0.41645 1.487289,-0.35695 1.383178,-0.937 a 4.7741949,4.7741949 0 0 0 -1.011355,-2.126815 l 0.178473,-1.487289 c 0,-0.08924 -0.163602,-0.08924 -0.178473,-0.193343 -0.223094,-1.14521 2.974576,-0.832881 2.677117,-1.978094 -0.297457,-1.145211 -2.974576,0 -3.242287,-1.219575 -0.267713,-1.21958 1.621144,-2.007844 1.353432,-3.361275 -0.267712,-1.353433 -0.966737,-1.888857 -1.219577,-3.182797 v 0.342077 c -1.814491,1.308814 -1.08572,3.063814 -1.145211,5.086525 0,0.550297 -0.818009,0.77339 -0.713898,1.323687 0.104104,0.550295 1.145211,0.178485 1.249322,0.654406 0.104105,0.475931 0.118984,0.654407 0.208221,1.070847 a 2.9745763,2.9745763 0 0 1 -1.710383,0.594915 1.9334746,1.9334746 0 0 0 0,0.312332 c 0.104118,0.520549 1.174959,0.282584 1.279068,0.818008 a 2.9745763,2.9745763 0 0 1 -0.401568,2.573011 c -0.223093,0.35695 -1.070847,0.25284 -0.981609,0.66928"
     id="path136"
     inkscape:connector-curvature="0"
     style="stroke-width:1" />
</svg>
