<?xml version="1.0" encoding="UTF-8" standalone="no"?>
<!-- Generator: Adobe Illustrator 24.1.2, SVG Export Plug-In . SVG Version: 6.00 Build 0)  -->

<svg
   xmlns:dc="http://purl.org/dc/elements/1.1/"
   xmlns:cc="http://creativecommons.org/ns#"
   xmlns:rdf="http://www.w3.org/1999/02/22-rdf-syntax-ns#"
   xmlns:svg="http://www.w3.org/2000/svg"
   xmlns="http://www.w3.org/2000/svg"
   xmlns:sodipodi="http://sodipodi.sourceforge.net/DTD/sodipodi-0.dtd"
   xmlns:inkscape="http://www.inkscape.org/namespaces/inkscape"
   version="1.1"
   id="Capa_1"
   x="0px"
   y="0px"
   viewBox="0 0 245.19472 143.49005"
   xml:space="preserve"
   sodipodi:docname="logofadu.svg"
   width="245.19472"
   height="143.49005"
   inkscape:version="0.92.5 (2060ec1f9f, 2020-04-08)"><metadata
   id="metadata351"><rdf:RDF><cc:Work
       rdf:about=""><dc:format>image/svg+xml</dc:format><dc:type
         rdf:resource="http://purl.org/dc/dcmitype/StillImage" /><dc:title></dc:title></cc:Work></rdf:RDF></metadata><defs
   id="defs349" /><sodipodi:namedview
   pagecolor="#ffffff"
   bordercolor="#666666"
   borderopacity="1"
   objecttolerance="10"
   gridtolerance="10"
   guidetolerance="10"
   inkscape:pageopacity="0"
   inkscape:pageshadow="2"
   inkscape:window-width="1366"
   inkscape:window-height="704"
   id="namedview347"
   showgrid="false"
   fit-margin-top="0"
   fit-margin-left="0"
   fit-margin-right="0"
   fit-margin-bottom="0"
   inkscape:zoom="1.6333333"
   inkscape:cx="161.52447"
   inkscape:cy="62.847202"
   inkscape:window-x="0"
   inkscape:window-y="27"
   inkscape:window-maximized="1"
   inkscape:current-layer="g344" />
<style
   type="text/css"
   id="style2">
	.st0{fill:none;}
	.st1{fill:#05BAEE;}
	.st2{fill:#1D1D1B;}
</style>
<g
   id="g344"
   transform="translate(-3.4755263,40.142857)">
	
	<g
   id="g254"
   transform="matrix(2.4469641,0,0,2.4469641,-375.06982,-57.271606)"
   style="stroke-width:0.40866968">
		<path
   class="st1"
   d="m 158.2,18.5 h -3.5 v -2.4 h 3.5 v -3 c 0,-3.5 0.7,-6.1 5.5,-6.1 0.9,0 1.3,0 1.8,0.1 v 2.4 c -0.4,-0.1 -0.9,-0.1 -1.4,-0.1 -2.1,0 -3.1,0.8 -3.1,3.7 v 3 h 4.5 v 2.4 H 161 v 22.9 h -2.9 z"
   id="path246"
   inkscape:connector-curvature="0"
   style="fill:#05baee;stroke-width:0.40866968" />
		<path
   class="st1"
   d="m 169.1,23.6 c 0,-5.2 2.5,-8.1 7.8,-8.1 5.2,0 7.1,2.7 7.1,6.7 v 14.9 c 0,1.4 0.5,2.1 1.5,2.1 h 0.8 v 2.1 c -0.5,0.2 -1,0.3 -1.3,0.3 -2.2,0 -3.7,-0.5 -3.7,-3.1 v -0.9 h -0.1 c -1.1,3.3 -3.7,4.3 -6.5,4.3 -4.4,0 -6.4,-2.8 -6.4,-7.1 0,-3.3 1.5,-6 5.1,-7 l 5.4,-1.5 c 2,-0.6 2.4,-1 2.4,-4 0,-3.2 -1.8,-4.4 -4.4,-4.4 -3.4,0 -4.9,2 -4.9,5.7 0,0 -2.8,0 -2.8,0 z m 12.1,3.5 v 0 c -0.4,0.9 -2,1.4 -3.1,1.7 l -2.4,0.6 c -2.9,0.8 -4.3,2.2 -4.3,5.2 0,3 1.5,5 4,5 3.5,0 5.9,-2.6 5.9,-7.1 z"
   id="path248"
   inkscape:connector-curvature="0"
   style="fill:#05baee;stroke-width:0.40866968" />
		<path
   class="st1"
   d="m 204.2,37.2 v 0 c -0.9,2.9 -3.3,4.8 -6.3,4.8 -5.6,0 -8.1,-4.5 -8.1,-13.2 0,-8.7 2.5,-13.2 8.1,-13.2 3.1,0 5.3,1.7 5.9,4.4 h 0.1 V 7.4 h 2.9 v 34 h -2.6 z m -5.8,2.4 c 2.9,0 5.5,-1.5 5.5,-10.9 0,-9.3 -2.6,-10.8 -5.5,-10.8 -2.9,0 -5.5,1.5 -5.5,10.8 -0.1,9.4 2.6,10.9 5.5,10.9 z"
   id="path250"
   inkscape:connector-curvature="0"
   style="fill:#05baee;stroke-width:0.40866968" />
		<path
   class="st1"
   d="m 212.9,16.1 h 2.9 v 17.8 c 0,4.1 1.4,5.7 4.4,5.7 3.2,0 5.5,-2.6 5.5,-6.5 v -17 h 2.9 V 41.4 H 226 v -3.5 h -0.1 c -1.4,2.8 -3.9,4.1 -6.5,4.1 -3.9,0 -6.5,-2 -6.5,-6.8 z"
   id="path252"
   inkscape:connector-curvature="0"
   style="fill:#05baee;stroke-width:0.40866968" />
	</g>
	
	
	<g
   id="g342"
   transform="matrix(1.5343851,0,0,1.5343851,-233.89387,-18.943291)"
   style="stroke-width:0.65172684">
		<path
   class="st2"
   d="m 158.1,54.3 h 5 V 55 H 159 v 3.7 h 3.8 v 0.8 H 159 v 4.9 h -0.9 z"
   id="path266"
   inkscape:connector-curvature="0"
   style="fill:#1d1d1b;stroke-width:0.65172684" />
		<path
   class="st2"
   d="m 166,54.3 h 1.1 l 3,10.1 h -1 l -0.8,-2.9 h -3.5 l -0.8,2.9 h -1 z m 2.2,6.3 -1.5,-5.7 v 0 l -1.5,5.7 z"
   id="path268"
   inkscape:connector-curvature="0"
   style="fill:#1d1d1b;stroke-width:0.65172684" />
		<path
   class="st2"
   d="m 177.3,60.9 c -0.1,2.3 -1.2,3.6 -3,3.6 -2.1,0 -3.2,-1.6 -3.2,-5.2 0,-3.6 1.2,-5.2 3.2,-5.2 2,0 2.9,1.5 2.9,3.1 h -0.9 c 0,-1.4 -0.7,-2.3 -2,-2.3 -1.4,0 -2.3,1.2 -2.3,4.4 0,3.3 0.9,4.4 2.3,4.4 1.3,0 2,-1.1 2.1,-2.8 z"
   id="path270"
   inkscape:connector-curvature="0"
   style="fill:#1d1d1b;stroke-width:0.65172684" />
		<path
   class="st2"
   d="m 178.6,54.3 h 0.9 v 7.2 c 0,1.5 0.6,2.2 2,2.2 1.3,0 2,-0.7 2,-2.2 v -7.2 h 0.9 v 7.2 c 0,2.1 -1,3 -2.9,3 -1.8,0 -2.9,-0.9 -2.9,-3 z"
   id="path272"
   inkscape:connector-curvature="0"
   style="fill:#1d1d1b;stroke-width:0.65172684" />
		<path
   class="st2"
   d="m 186.1,54.3 h 0.9 v 9.3 h 4.2 v 0.8 h -5.1 z"
   id="path274"
   inkscape:connector-curvature="0"
   style="fill:#1d1d1b;stroke-width:0.65172684" />
		<path
   class="st2"
   d="m 193.2,55 h -2.6 v -0.8 h 6.1 V 55 h -2.6 v 9.3 h -0.9 z"
   id="path276"
   inkscape:connector-curvature="0"
   style="fill:#1d1d1b;stroke-width:0.65172684" />
		<path
   class="st2"
   d="m 199.3,54.3 h 1.1 l 3,10.1 h -1 l -0.8,-2.9 h -3.5 l -0.8,2.9 h -1 z m 2.1,6.3 -1.5,-5.7 v 0 l -1.5,5.7 z"
   id="path278"
   inkscape:connector-curvature="0"
   style="fill:#1d1d1b;stroke-width:0.65172684" />
		<path
   class="st2"
   d="m 204.4,54.3 h 2.4 c 2.9,0 3.6,1.7 3.6,5 0,3.3 -0.7,5 -3.6,5 h -2.4 z m 0.9,9.2 h 1.5 c 2,0 2.8,-1 2.8,-4.3 0,-3.3 -0.8,-4.3 -2.8,-4.3 h -1.5 z"
   id="path280"
   inkscape:connector-curvature="0"
   style="fill:#1d1d1b;stroke-width:0.65172684" />
		<path
   class="st2"
   d="m 215.9,54.3 h 2.4 c 2.9,0 3.6,1.7 3.6,5 0,3.3 -0.7,5 -3.6,5 h -2.4 z m 0.9,9.2 h 1.5 c 2,0 2.8,-1 2.8,-4.3 0,-3.3 -0.8,-4.3 -2.8,-4.3 h -1.5 z"
   id="path282"
   inkscape:connector-curvature="0"
   style="fill:#1d1d1b;stroke-width:0.65172684" />
		<path
   class="st2"
   d="m 223.8,54.3 h 5 V 55 h -4.1 v 3.7 h 3.8 v 0.8 h -3.8 v 4.1 h 4.2 v 0.8 h -5.1 z"
   id="path284"
   inkscape:connector-curvature="0"
   style="fill:#1d1d1b;stroke-width:0.65172684" />
		<path
   class="st2"
   d="m 235.6,54.3 h 1.1 l 3,10.1 h -1 l -0.8,-2.9 h -3.5 l -0.8,2.9 h -1 z m 2.1,6.3 -1.5,-5.7 v 0 l -1.5,5.7 z"
   id="path286"
   inkscape:connector-curvature="0"
   style="fill:#1d1d1b;stroke-width:0.65172684" />
		<path
   class="st2"
   d="m 240.8,54.3 h 3 c 1.7,0 2.6,1 2.6,2.5 0,1.2 -0.5,2.3 -1.8,2.5 v 0 c 1.3,0.1 1.7,0.8 1.7,2.4 v 1.1 c 0,0.5 0.1,1.1 0.4,1.5 h -1.1 c -0.2,-0.4 -0.3,-0.9 -0.3,-1.4 v -0.8 c -0.1,-1.8 -0.4,-2.3 -2,-2.3 h -1.7 v 4.6 h -0.9 V 54.3 Z m 0.9,4.7 h 1.5 c 1.4,0 2.3,-0.6 2.3,-2 0,-1.2 -0.5,-2 -2.2,-2 h -1.6 z"
   id="path288"
   inkscape:connector-curvature="0"
   style="fill:#1d1d1b;stroke-width:0.65172684" />
		<path
   class="st2"
   d="m 253,63.9 c -0.5,0.4 -1.1,0.6 -1.8,0.6 -2.1,0 -3.2,-1.6 -3.2,-5.2 0,-3.6 1.2,-5.2 3.2,-5.2 2.1,0 3.2,1.6 3.2,5.2 0,1.9 -0.3,3.2 -0.9,4 l 1,1 -0.5,0.5 z m -1.6,-1.7 0.5,-0.5 1.1,1.1 c 0.4,-0.7 0.6,-1.8 0.6,-3.4 0,-3.3 -0.9,-4.4 -2.3,-4.4 -1.4,0 -2.3,1.2 -2.3,4.4 0,3.3 0.9,4.4 2.3,4.4 0.5,0 0.9,-0.1 1.3,-0.5 z"
   id="path290"
   inkscape:connector-curvature="0"
   style="fill:#1d1d1b;stroke-width:0.65172684" />
		<path
   class="st2"
   d="m 256.1,54.3 h 0.9 v 7.2 c 0,1.5 0.6,2.2 2,2.2 1.3,0 2,-0.7 2,-2.2 v -7.2 h 0.9 v 7.2 c 0,2.1 -1,3 -2.9,3 -1.8,0 -2.9,-0.9 -2.9,-3 z"
   id="path292"
   inkscape:connector-curvature="0"
   style="fill:#1d1d1b;stroke-width:0.65172684" />
		<path
   class="st2"
   d="m 263.6,54.3 h 0.9 v 10.1 h -0.9 z"
   id="path294"
   inkscape:connector-curvature="0"
   style="fill:#1d1d1b;stroke-width:0.65172684" />
		<path
   class="st2"
   d="m 268.3,55 h -2.6 v -0.8 h 6.1 V 55 h -2.6 v 9.3 h -0.9 z"
   id="path296"
   inkscape:connector-curvature="0"
   style="fill:#1d1d1b;stroke-width:0.65172684" />
		<path
   class="st2"
   d="m 272.9,54.3 h 5 V 55 h -4.1 v 3.7 h 3.8 v 0.8 h -3.8 v 4.1 h 4.2 v 0.8 h -5.1 z"
   id="path298"
   inkscape:connector-curvature="0"
   style="fill:#1d1d1b;stroke-width:0.65172684" />
		<path
   class="st2"
   d="m 285.6,60.9 c -0.1,2.3 -1.2,3.6 -3,3.6 -2.1,0 -3.2,-1.6 -3.2,-5.2 0,-3.6 1.2,-5.2 3.2,-5.2 2,0 2.9,1.5 2.9,3.1 h -0.9 c 0,-1.4 -0.7,-2.3 -2,-2.3 -1.4,0 -2.3,1.2 -2.3,4.4 0,3.3 0.9,4.4 2.3,4.4 1.3,0 2,-1.1 2.1,-2.8 z"
   id="path300"
   inkscape:connector-curvature="0"
   style="fill:#1d1d1b;stroke-width:0.65172684" />
		<path
   class="st2"
   d="m 289,55 h -2.6 v -0.8 h 6.1 V 55 h -2.6 v 9.3 H 289 Z"
   id="path302"
   inkscape:connector-curvature="0"
   style="fill:#1d1d1b;stroke-width:0.65172684" />
		<path
   class="st2"
   d="m 293.5,54.3 h 0.9 v 7.2 c 0,1.5 0.6,2.2 2,2.2 1.3,0 2,-0.7 2,-2.2 v -7.2 h 0.9 v 7.2 c 0,2.1 -1,3 -2.9,3 -1.8,0 -2.9,-0.9 -2.9,-3 z"
   id="path304"
   inkscape:connector-curvature="0"
   style="fill:#1d1d1b;stroke-width:0.65172684" />
		<path
   class="st2"
   d="m 300.9,54.3 h 3 c 1.7,0 2.6,1 2.6,2.5 0,1.2 -0.5,2.3 -1.8,2.5 v 0 c 1.3,0.1 1.7,0.8 1.7,2.4 v 1.1 c 0,0.5 0.1,1.1 0.4,1.5 h -1.1 c -0.2,-0.4 -0.3,-0.9 -0.3,-1.4 v -0.8 c -0.1,-1.8 -0.4,-2.3 -2,-2.3 h -1.7 v 4.6 h -0.9 z m 0.9,4.7 h 1.5 c 1.4,0 2.3,-0.6 2.3,-2 0,-1.2 -0.5,-2 -2.2,-2 h -1.6 z"
   id="path306"
   inkscape:connector-curvature="0"
   style="fill:#1d1d1b;stroke-width:0.65172684" />
		<path
   class="st2"
   d="m 310.4,54.3 h 1.1 l 3,10.1 h -1 l -0.8,-2.9 h -3.5 l -0.8,2.9 h -1 z m 2.1,6.3 L 311,55 v 0 l -1.5,5.7 h 3 z"
   id="path308"
   inkscape:connector-curvature="0"
   style="fill:#1d1d1b;stroke-width:0.65172684" />
		<path
   class="st2"
   d="m 158.1,69.4 h 2.4 c 2.9,0 3.6,1.7 3.6,5 0,3.3 -0.7,5 -3.6,5 h -2.4 z m 0.9,9.3 h 1.5 c 2,0 2.8,-1 2.8,-4.3 0,-3.3 -0.8,-4.3 -2.8,-4.3 H 159 Z"
   id="path310"
   inkscape:connector-curvature="0"
   style="fill:#1d1d1b;stroke-width:0.65172684" />
		<path
   class="st2"
   d="m 166,69.4 h 0.9 V 79.5 H 166 Z"
   id="path312"
   inkscape:connector-curvature="0"
   style="fill:#1d1d1b;stroke-width:0.65172684" />
		<path
   class="st2"
   d="m 173.2,72 c 0,-1.2 -0.6,-2 -1.8,-2 -1.2,0 -1.9,0.8 -1.9,1.8 0,3 4.9,1.4 4.9,4.9 0,1.9 -1.2,2.9 -3,2.9 -1.9,0 -2.9,-1 -2.9,-3 v -0.3 h 0.9 v 0.4 c 0,1.3 0.7,2.1 2,2.1 1.3,0 2.2,-0.6 2.2,-2 0,-3 -4.9,-1.3 -4.9,-4.9 0,-1.6 1,-2.7 2.8,-2.7 1.9,0 2.7,1 2.7,2.7 z"
   id="path314"
   inkscape:connector-curvature="0"
   style="fill:#1d1d1b;stroke-width:0.65172684" />
		<path
   class="st2"
   d="m 175.9,69.4 h 5 v 0.8 h -4.1 v 3.7 h 3.8 v 0.8 h -3.8 v 4.1 h 4.2 v 0.8 h -5.1 z"
   id="path316"
   inkscape:connector-curvature="0"
   style="fill:#1d1d1b;stroke-width:0.65172684" />
		<path
   class="st2"
   d="m 182.4,69.4 h 1.2 l 3.8,8.8 v 0 -8.8 h 0.9 v 10.1 h -1.2 l -3.8,-8.8 v 0 8.8 h -0.9 z m 4.9,-2.1 c 0,0.6 -0.4,1.4 -1.1,1.4 -0.3,0 -0.5,-0.1 -0.7,-0.2 L 185,68.2 c -0.1,-0.1 -0.3,-0.1 -0.3,-0.1 -0.3,0 -0.5,0.4 -0.5,0.7 h -0.6 c 0,-0.6 0.5,-1.4 1.1,-1.4 0.3,0 0.5,0.1 0.8,0.3 l 0.4,0.2 c 0.1,0.1 0.3,0.2 0.4,0.2 0.3,0 0.5,-0.4 0.5,-0.7 z"
   id="path318"
   inkscape:connector-curvature="0"
   style="fill:#1d1d1b;stroke-width:0.65172684" />
		<path
   class="st2"
   d="m 193.4,69.3 c 2.1,0 3.2,1.6 3.2,5.2 0,3.6 -1.2,5.2 -3.2,5.2 -2,0 -3.2,-1.6 -3.2,-5.2 0,-3.6 1.1,-5.2 3.2,-5.2 z m 0,9.6 c 1.4,0 2.3,-1.2 2.3,-4.4 0,-3.3 -0.9,-4.4 -2.3,-4.4 -1.4,0 -2.3,1.2 -2.3,4.4 0,3.2 0.8,4.4 2.3,4.4 z"
   id="path320"
   inkscape:connector-curvature="0"
   style="fill:#1d1d1b;stroke-width:0.65172684" />
		<path
   class="st2"
   d="m 203.4,75.5 -2.7,-6 h 1 l 2.2,5 2.2,-5 h 1 l -2.7,6 v 4 h -0.9 v -4 z"
   id="path322"
   inkscape:connector-curvature="0"
   style="fill:#1d1d1b;stroke-width:0.65172684" />
		<path
   class="st2"
   d="m 211.6,69.4 h 0.9 v 7.2 c 0,1.5 0.6,2.2 2,2.2 1.3,0 2,-0.7 2,-2.2 v -7.2 h 0.9 v 7.2 c 0,2.1 -1,3 -2.9,3 -1.8,0 -2.9,-0.9 -2.9,-3 z"
   id="path324"
   inkscape:connector-curvature="0"
   style="fill:#1d1d1b;stroke-width:0.65172684" />
		<path
   class="st2"
   d="m 219,69.4 h 3 c 1.7,0 2.6,1 2.6,2.5 0,1.2 -0.5,2.3 -1.8,2.5 v 0 c 1.3,0.1 1.7,0.8 1.7,2.4 v 1.1 c 0,0.5 0.1,1.1 0.4,1.5 h -1.1 C 223.6,79 223.5,78.5 223.5,78 v -0.8 c -0.1,-1.8 -0.4,-2.3 -2,-2.3 h -1.7 v 4.6 H 219 Z m 0.9,4.7 h 1.5 c 1.4,0 2.3,-0.6 2.3,-2 0,-1.2 -0.5,-2 -2.2,-2 h -1.6 z"
   id="path326"
   inkscape:connector-curvature="0"
   style="fill:#1d1d1b;stroke-width:0.65172684" />
		<path
   class="st2"
   d="m 226.3,69.4 h 2.8 c 1.9,0 2.7,1 2.7,2.5 0,1 -0.5,1.9 -1.5,2.2 v 0 c 1.2,0.2 1.9,1.2 1.9,2.5 0,1.8 -1.1,2.8 -3,2.8 h -2.8 z m 0.9,4.5 h 1.4 c 1.5,0 2.3,-0.7 2.3,-1.8 0,-1.3 -0.7,-1.8 -2.1,-1.8 h -1.6 z m 0,4.8 h 1.7 c 1.6,0 2.3,-0.7 2.3,-2.1 0,-1.4 -0.8,-2.1 -2.3,-2.1 h -1.7 z"
   id="path328"
   inkscape:connector-curvature="0"
   style="fill:#1d1d1b;stroke-width:0.65172684" />
		<path
   class="st2"
   d="m 235.8,69.4 h 1.1 l 3,10.1 h -1 l -0.8,-2.9 h -3.5 l -0.8,2.9 h -1 z m 2.2,6.4 -1.5,-5.7 v 0 l -1.5,5.7 z"
   id="path330"
   inkscape:connector-curvature="0"
   style="fill:#1d1d1b;stroke-width:0.65172684" />
		<path
   class="st2"
   d="m 241,69.4 h 1.2 l 3.8,8.8 v 0 -8.8 h 0.9 v 10.1 h -1.2 l -3.8,-8.8 v 0 8.8 H 241 Z"
   id="path332"
   inkscape:connector-curvature="0"
   style="fill:#1d1d1b;stroke-width:0.65172684" />
		<path
   class="st2"
   d="m 248.9,69.4 h 0.9 v 10.1 h -0.9 z"
   id="path334"
   inkscape:connector-curvature="0"
   style="fill:#1d1d1b;stroke-width:0.65172684" />
		<path
   class="st2"
   d="m 256.1,72 c 0,-1.2 -0.6,-2 -1.8,-2 -1.2,0 -1.9,0.8 -1.9,1.8 0,3 4.9,1.4 4.9,4.9 0,1.9 -1.2,2.9 -3,2.9 -1.9,0 -2.9,-1 -2.9,-3 v -0.3 h 0.9 v 0.4 c 0,1.3 0.7,2.1 2,2.1 1.3,0 2.2,-0.6 2.2,-2 0,-3 -4.9,-1.3 -4.9,-4.9 0,-1.6 1,-2.7 2.8,-2.7 1.9,0 2.7,1 2.7,2.7 z"
   id="path336"
   inkscape:connector-curvature="0"
   style="fill:#1d1d1b;stroke-width:0.65172684" />
		<path
   class="st2"
   d="m 258.8,69.4 h 1.6 l 2.4,8.9 v 0 l 2.4,-8.9 h 1.5 v 10.1 h -0.9 v -9.2 0 l -2.6,9.2 h -0.8 l -2.6,-9.2 v 0 9.2 h -0.9 V 69.4 Z"
   id="path338"
   inkscape:connector-curvature="0"
   style="fill:#1d1d1b;stroke-width:0.65172684" />
		<path
   class="st2"
   d="m 271.8,69.3 c 2.1,0 3.2,1.6 3.2,5.2 0,3.6 -1.2,5.2 -3.2,5.2 -2,0 -3.2,-1.6 -3.2,-5.2 0,-3.6 1.2,-5.2 3.2,-5.2 z m 0,9.6 c 1.4,0 2.3,-1.2 2.3,-4.4 0,-3.3 -0.9,-4.4 -2.3,-4.4 -1.4,0 -2.3,1.2 -2.3,4.4 0,3.2 0.9,4.4 2.3,4.4 z"
   id="path340"
   inkscape:connector-curvature="0"
   style="fill:#1d1d1b;stroke-width:0.65172684" />
	</g>
</g>
</svg>