<?xml version="1.0" encoding="UTF-8" standalone="no"?>
<!-- Generator: Adobe Illustrator 16.0.0, SVG Export Plug-In . SVG Version: 6.00 Build 0)  -->

<svg
   xmlns:dc="http://purl.org/dc/elements/1.1/"
   xmlns:cc="http://creativecommons.org/ns#"
   xmlns:rdf="http://www.w3.org/1999/02/22-rdf-syntax-ns#"
   xmlns:svg="http://www.w3.org/2000/svg"
   xmlns="http://www.w3.org/2000/svg"
   xmlns:sodipodi="http://sodipodi.sourceforge.net/DTD/sodipodi-0.dtd"
   xmlns:inkscape="http://www.inkscape.org/namespaces/inkscape"
   version="1.0"
   x="0px"
   y="0px"
   width="179.58218"
   height="89.644615"
   viewBox="0 0 179.58219 89.644614"
   xml:space="preserve"
   id="svg46"
   sodipodi:docname="logo-dgpc.svg"
   inkscape:version="0.92.5 (2060ec1f9f, 2020-04-08)"><metadata
   id="metadata52"><rdf:RDF><cc:Work
       rdf:about=""><dc:format>image/svg+xml</dc:format><dc:type
         rdf:resource="http://purl.org/dc/dcmitype/StillImage" /><dc:title></dc:title></cc:Work></rdf:RDF></metadata><defs
   id="defs50" /><sodipodi:namedview
   pagecolor="#ffffff"
   bordercolor="#666666"
   borderopacity="1"
   objecttolerance="10"
   gridtolerance="10"
   guidetolerance="10"
   inkscape:pageopacity="0"
   inkscape:pageshadow="2"
   inkscape:window-width="1366"
   inkscape:window-height="704"
   id="namedview48"
   showgrid="false"
   fit-margin-top="0"
   fit-margin-left="0"
   fit-margin-right="0"
   fit-margin-bottom="0"
   inkscape:zoom="2.7267516"
   inkscape:cx="85.01683"
   inkscape:cy="72.780507"
   inkscape:window-x="0"
   inkscape:window-y="27"
   inkscape:window-maximized="1"
   inkscape:current-layer="svg46" />
<style
   type="text/css"
   id="style2">
<![CDATA[
	.st0{fill-rule:evenodd;clip-rule:evenodd;fill:#0CB0E5;}
	.st1{fill-rule:evenodd;clip-rule:evenodd;}
]]>
</style>
<g
   id="Capa_1"
   transform="scale(2.9295626)"
   style="stroke-width:0.34134787">
	<g
   id="g42"
   style="stroke-width:0.34134787">
		<g
   id="g14"
   style="stroke-width:0.34134787">
			<g
   id="g12"
   style="stroke-width:0.34134787">
				<rect
   x="54"
   y="10.2"
   class="st0"
   width="2.2"
   height="2.2"
   id="rect4"
   style="clip-rule:evenodd;fill:#0cb0e5;fill-rule:evenodd;stroke-width:0.34134787" />
				<rect
   x="40.799999"
   y="10.2"
   class="st0"
   width="2.2"
   height="2.2"
   id="rect6"
   style="clip-rule:evenodd;fill:#0cb0e5;fill-rule:evenodd;stroke-width:0.34134787" />
				<rect
   x="27"
   y="10.2"
   class="st0"
   width="2.2"
   height="2.2"
   id="rect8"
   style="clip-rule:evenodd;fill:#0cb0e5;fill-rule:evenodd;stroke-width:0.34134787" />
				<rect
   x="13.9"
   y="10.2"
   class="st0"
   width="2.2"
   height="2.2"
   id="rect10"
   style="clip-rule:evenodd;fill:#0cb0e5;fill-rule:evenodd;stroke-width:0.34134787" />
			</g>
		</g>
		<g
   id="g40"
   style="stroke-width:0.34134787">
			<rect
   x="54"
   y="18.200001"
   class="st1"
   width="2.2"
   height="2.2"
   id="rect16"
   style="clip-rule:evenodd;fill-rule:evenodd;stroke-width:0.34134787" />
			<rect
   x="18.200001"
   y="24.799999"
   class="st1"
   width="8.8000002"
   height="2.2"
   id="rect18"
   style="clip-rule:evenodd;fill-rule:evenodd;stroke-width:0.34134787" />
			<rect
   x="47.400002"
   y="8"
   class="st1"
   width="6.5999999"
   height="2.2"
   id="rect20"
   style="clip-rule:evenodd;fill-rule:evenodd;stroke-width:0.34134787" />
			<rect
   x="20.4"
   y="8"
   class="st1"
   width="8.8000002"
   height="2.2"
   id="rect22"
   style="clip-rule:evenodd;fill-rule:evenodd;stroke-width:0.34134787" />
			<rect
   x="47.400002"
   y="20.4"
   class="st1"
   width="6.5999999"
   height="2.2"
   id="rect24"
   style="clip-rule:evenodd;fill-rule:evenodd;stroke-width:0.34134787" />
			<rect
   x="40.799999"
   y="12.4"
   class="st1"
   width="2.2"
   height="8"
   id="rect26"
   style="clip-rule:evenodd;fill-rule:evenodd;stroke-width:0.34134787" />
			<polygon
   class="st1"
   points="27,20.4 20.4,20.4 20.4,22.6 27,22.6 27,24.8 29.2,24.8 29.2,12.4 27,12.4 "
   id="polygon28"
   style="clip-rule:evenodd;fill-rule:evenodd;stroke-width:0.34134787" />
			<rect
   x="45.200001"
   y="10.2"
   class="st1"
   width="2.2"
   height="10.2"
   id="rect30"
   style="clip-rule:evenodd;fill-rule:evenodd;stroke-width:0.34134787" />
			<rect
   x="18.200001"
   y="10.2"
   class="st1"
   width="2.2"
   height="10.2"
   id="rect32"
   style="clip-rule:evenodd;fill-rule:evenodd;stroke-width:0.34134787" />
			<polygon
   class="st1"
   points="40.8,10.2 40.8,8 32.1,8 32.1,27 34.3,27 34.3,22.6 40.8,22.6 40.8,20.4 34.3,20.4 34.3,10.2 "
   id="polygon34"
   style="clip-rule:evenodd;fill-rule:evenodd;stroke-width:0.34134787" />
			<path
   class="st1"
   d="m 2.2,1.5 h 56.9 v 0.7 h 0.7 V 13.9 H 59.1 V 16 h 0.7 v 12.4 h -0.7 v 0.7 H 2.2 V 28.4 H 1.5 V 16 H 2.2 V 13.8 H 1.5 V 2.2 H 2.2 Z M 59.1,0.7 H 2.2 V 0 H 0 V 2.2 H 0.7 V 13.9 H 0 V 16 H 0.7 V 28.4 H 0 v 2.2 h 2.2 v -0.7 h 56.9 v 0.7 h 2.2 V 28.4 H 60.6 V 16 h 0.7 V 13.8 H 60.6 V 2.2 h 0.7 V 0 h -2.2 z"
   id="path36"
   inkscape:connector-curvature="0"
   style="clip-rule:evenodd;fill-rule:evenodd;stroke-width:0.34134787" />
			<polygon
   class="st1"
   points="7.3,22.6 16,22.6 16,12.4 13.9,12.4 13.9,20.4 7.3,20.4 7.3,10.2 13.9,10.2 16,10.2 16,3.6 13.9,3.6 13.9,8 7.3,8 7.3,10.2 5.1,10.2 5.1,20.4 7.3,20.4 "
   id="polygon38"
   style="clip-rule:evenodd;fill-rule:evenodd;stroke-width:0.34134787" />
		</g>
	</g>
</g>
<g
   id="Capa_2">
</g>
</svg>